<?xml version="1.0" encoding="UTF-8"?>
<svg width="1006px" height="562px" viewBox="0 0 1006 562" version="1.1" xmlns="http://www.w3.org/2000/svg" xmlns:xlink="http://www.w3.org/1999/xlink">
    <!-- Generator: Sketch 56.3 (81716) - https://sketch.com -->
    <title>Rectangle</title>
    <desc>Created with Sketch.</desc>
    <g id="Symbols" stroke="none" stroke-width="1" fill="none" fill-rule="evenodd">
        <g id="Combined-Shape-2-Copy-2" transform="translate(1.000000, 0.000000)" fill="#000">
            <path d="M417.303143,562 L367.791075,562 L367.791075,1.97192982 L295.026463,1.97192982 L295.026463,562 L245.633805,562 L245.633805,0 L417.303143,0 L417.303143,562 Z M488.106523,562 L488.106523,423.325927 L517.367602,358.763855 L591.435379,562 L488.106523,562 Z M675.977558,562 L565.077652,247.704974 L670.403424,0 L1005,0 L1005,562 L675.977558,562 Z M589.213112,0 L488.106523,231.913604 L488.106523,0 L589.213112,0 Z M174.387158,0 L174.387158,297.739884 L60.6465425,0 L0.45082416,0 L0.45082416,562 L72.5098266,562 L72.5098266,262.100764 L187.793737,562 L-3.41060513e-13,562 L-3.41060513e-13,0 L174.387158,0 Z M798.491431,562 C876.51083,562 939.75805,436.192015 939.75805,281 C939.75805,125.807985 876.51083,0 798.491431,0 C720.472031,0 657.224811,125.807985 657.224811,281 C657.224811,436.192015 720.472031,562 798.491431,562 Z M798.9546,431.535714 C761.607609,431.535714 731.33189,364.587894 731.33189,282.003571 C731.33189,199.419249 761.607609,132.471429 798.9546,132.471429 C836.301591,132.471429 866.577309,199.419249 866.577309,282.003571 C866.577309,364.587894 836.301591,431.535714 798.9546,431.535714 Z" id="Combined-Shape-Copy-3"></path>
        </g>
    </g>
</svg>