<?xml version="1.0" standalone="no"?>
<!DOCTYPE svg PUBLIC "-//W3C//DTD SVG 20010904//EN"
 "http://www.w3.org/TR/2001/REC-SVG-20010904/DTD/svg10.dtd">
<svg version="1.0" xmlns="http://www.w3.org/2000/svg"
 width="300.000000pt" height="305.000000pt" viewBox="0 0 300.000000 305.000000"
 preserveAspectRatio="xMidYMid meet">
<metadata>
Created by potrace 1.10, written by Peter Selinger 2001-2011
</metadata>
<g transform="translate(0.000000,305.000000) scale(0.050000,-0.050000)"
fill="#8a8bd1" stroke="none">
<path d="M1640 5858 c0 -235 -2 -244 -56 -315 -102 -131 -144 -217 -182 -366
-42 -166 -1 -143 -350 -199 -280 -44 -419 -205 -519 -598 l-48 -189 -237 -34
c-131 -18 -240 -34 -243 -35 -38 -13 2 -221 40 -213 79 18 379 71 398 71 11 0
16 -47 13 -105 l-6 -105 -65 7 c-36 3 -65 -3 -65 -14 0 -24 77 -53 118 -45 27
5 25 -462 -2 -489 -10 -9 -215 -68 -341 -97 -76 -18 -69 -53 9 -47 90 7 104
-56 17 -75 -75 -16 -86 -127 -21 -210 22 -27 39 -63 39 -80 1 -17 -16 -5 -37
27 -36 55 -38 56 -51 15 -8 -23 -22 -42 -32 -42 -11 0 -19 -19 -19 -41 0 -30
10 -39 35 -32 19 6 75 22 125 35 103 28 148 58 87 58 -111 0 -146 174 -40 203
63 16 137 74 123 97 -5 8 11 35 36 62 l44 47 6 -108 c7 -125 -21 -425 -67
-725 l-33 -209 -153 -50 c-147 -47 -153 -52 -159 -116 -7 -63 -4 -66 55 -57
35 5 62 0 62 -12 1 -12 10 -4 20 18 12 26 16 -29 11 -160 l-8 -200 21 215 c16
167 28 215 50 215 26 0 26 -5 2 -34 -18 -23 -19 -29 -2 -19 16 10 25 4 25 -16
0 -17 -9 -31 -20 -31 -10 0 -18 -43 -18 -95 1 -52 -1 -108 -5 -125 -4 -16 5
-28 19 -25 17 4 24 -16 21 -65 -3 -38 -13 -70 -22 -70 -10 0 -15 -20 -11 -45
11 -77 -52 -54 -67 25 -9 48 -12 29 -10 -63 2 -73 10 -132 19 -130 9 2 39 -55
66 -125 26 -70 60 -138 75 -150 30 -25 73 -139 125 -328 19 -70 40 -117 48
-104 11 17 150 -279 242 -515 13 -35 33 -45 90 -45 58 0 70 6 60 32 -7 17 -14
375 -17 795 l-4 763 -11 -760 c-6 -418 -14 -733 -17 -700 -14 132 -27 181 -54
209 -25 26 -29 25 -30 -10 -3 -75 -36 32 -40 131 l-4 90 -15 -70 c-13 -61 -15
-53 -20 60 -5 121 -7 124 -20 50 -11 -59 -15 -66 -17 -27 -2 39 -20 61 -64 80
l-61 27 13 160 c12 139 49 263 49 163 0 -20 7 -31 16 -26 9 6 15 -14 14 -43
-1 -31 -12 -52 -26 -49 -37 8 -29 -23 14 -49 36 -23 38 -12 52 238 12 211 9
264 -13 278 -47 30 -51 21 -55 -137 -2 -84 -9 -159 -15 -164 -5 -6 -7 72 -4
174 4 102 0 185 -8 185 -8 0 -16 -65 -16 -145 -1 -80 -14 -262 -28 -405 l-25
-260 -6 160 c-3 120 -9 145 -20 100 -15 -57 -15 -56 -18 22 -1 51 -18 103 -44
136 -42 53 -42 57 -15 438 21 295 29 356 37 264 6 -66 4 -149 -3 -184 -9 -46
-4 -67 17 -75 42 -16 42 -16 52 34 5 25 11 -31 15 -125 l5 -170 15 190 c8 105
14 267 13 360 l-2 170 -12 -190 -12 -190 -6 190 c-4 142 -10 176 -22 133 -10
-31 -13 -71 -7 -90 5 -18 -5 -8 -22 22 -55 94 -63 66 -89 -320 -26 -375 -62
-569 -50 -272 4 119 2 140 -11 87 -12 -47 -14 -1 -8 137 6 151 2 215 -17 239
-20 24 -20 28 -1 17 14 -9 26 -8 28 1 3 19 13 158 15 221 2 32 14 45 43 45 33
0 39 -9 29 -40 -7 -23 -4 -40 9 -40 30 0 26 115 -4 126 -14 5 9 16 50 24 105
20 97 58 -10 44 -47 -7 -74 -7 -60 -1 14 6 25 27 25 47 0 36 69 81 431 283
143 79 471 195 595 209 71 9 124 29 169 67 l65 54 -40 157 c-27 106 -54 166
-82 186 -39 27 -42 43 -33 172 9 119 4 151 -28 196 -26 37 -44 109 -55 220 -8
91 -32 225 -52 298 -41 148 -32 198 35 198 33 0 53 17 70 63 l24 63 69 -53
c116 -88 128 -60 24 56 -70 79 -132 87 -132 18 0 -18 -7 -27 -15 -19 -13 13
-18 95 -27 417 -1 52 -95 54 -124 3 -9 -16 -24 -24 -34 -18 -9 6 -22 2 -29 -8
-6 -10 3 -23 19 -29 17 -7 24 -25 18 -42 -7 -17 -4 -31 7 -31 10 0 18 -27 18
-59 0 -33 -7 -55 -16 -49 -9 6 -17 -8 -17 -31 0 -22 8 -41 18 -41 35 0 40 -80
5 -82 -21 -1 -24 -5 -8 -11 14 -6 25 -29 25 -51 0 -29 -9 -37 -33 -28 -27 11
-29 8 -7 -18 22 -26 20 -29 -7 -18 -43 16 -85 -84 -51 -124 12 -15 18 -46 12
-68 -6 -22 -2 -45 9 -52 11 -7 10 -23 -4 -40 -19 -22 -17 -28 7 -28 23 0 29
-14 22 -52 -6 -35 -2 -47 13 -37 17 10 17 3 1 -27 -15 -28 -15 -46 -2 -54 11
-7 20 -30 20 -52 0 -22 -8 -35 -19 -29 -10 6 -24 3 -31 -9 -7 -11 6 -20 29
-20 22 0 41 -10 41 -21 0 -12 -9 -16 -20 -9 -11 7 -20 -2 -20 -19 0 -17 7 -31
16 -31 16 0 30 -75 28 -158 0 -36 4 -41 18 -20 16 26 30 -119 19 -199 -2 -15
20 -63 49 -107 l53 -80 -47 14 -46 14 44 -33 c86 -63 31 -237 -59 -188 -26 13
-46 13 -63 -1 -14 -12 -31 -16 -38 -10 -6 7 -34 -11 -60 -40 -27 -28 -67 -52
-90 -52 -23 0 -47 -9 -54 -20 -7 -11 -26 -20 -43 -20 -16 0 -43 -14 -60 -30
-19 -20 -48 -26 -81 -17 -35 9 -48 6 -39 -9 17 -26 -12 -45 -86 -57 -39 -6
-60 1 -69 24 -9 25 -19 28 -38 13 -32 -28 -24 169 9 209 15 19 15 27 1 27 -26
0 -18 421 8 463 10 15 18 227 18 471 0 328 7 450 25 469 14 14 25 42 25 62 0
23 9 32 23 23 14 -9 18 -5 9 9 -8 13 -8 33 -1 45 10 16 19 14 31 -5 12 -18 17
-19 18 -3 0 13 -9 29 -19 36 -12 7 -4 51 19 111 22 54 33 99 25 99 -8 0 -6 7
6 15 12 8 37 49 56 90 19 41 47 75 62 75 15 0 32 13 37 28 20 50 208 98 327
84 105 -12 107 -11 107 39 0 45 59 139 60 95 0 -9 9 -2 20 14 15 22 19 12 20
-41 0 -39 -13 -89 -29 -110 -40 -53 -38 -74 4 -47 24 15 37 52 41 120 4 71 20
113 55 151 27 29 47 63 44 75 -9 43 72 224 138 305 37 46 67 93 67 105 0 12
38 41 85 65 96 49 215 63 215 24 0 -33 160 -56 266 -38 46 7 102 13 123 13 22
0 51 10 66 22 20 16 33 16 50 -1 17 -17 32 -14 60 11 32 30 40 30 56 5 10 -16
19 -20 19 -9 1 11 11 4 22 -16 13 -23 34 -31 58 -24 20 6 43 2 50 -10 17 -28
50 -6 50 35 0 17 -6 26 -13 19 -7 -7 -29 9 -50 36 -27 34 -62 50 -121 54 -79
6 -82 9 -90 81 l-7 75 75 -50 c42 -27 87 -59 101 -71 17 -14 25 -14 25 0 0 12
16 21 35 21 20 0 26 -7 14 -15 -36 -26 -21 -75 26 -81 34 -5 42 1 33 25 -7 17
-2 31 10 31 12 0 22 -18 22 -40 0 -22 -9 -40 -20 -40 -11 0 -20 -9 -20 -20 0
-37 44 -20 55 22 6 23 16 34 23 25 48 -66 212 -76 236 -14 6 15 19 27 30 27
11 0 15 -13 9 -30 -16 -42 12 -37 74 11 38 30 49 33 41 11 -9 -23 0 -28 40
-21 29 6 52 1 52 -11 0 -11 20 -20 45 -20 102 0 375 -352 375 -484 0 -18 9
-39 20 -46 51 -32 20 225 -41 341 -63 120 -286 356 -358 379 -22 7 -41 25 -41
39 0 38 -60 56 -93 29 -23 -19 -25 -17 -14 13 11 28 7 33 -19 23 -18 -7 -38
-3 -45 8 -13 21 -95 58 -147 67 -15 2 -38 19 -51 37 -32 44 -131 61 -131 23 0
-16 10 -29 22 -29 12 0 17 -13 12 -28 -6 -15 -6 -34 1 -40 20 -20 20 -91 0
-79 -10 6 -13 24 -6 41 7 19 -3 34 -29 40 -22 6 -40 25 -40 42 0 23 -6 26 -22
10 -32 -32 -105 -9 -77 25 17 20 12 23 -20 15 -22 -6 -41 -18 -41 -27 0 -20
-122 -19 -150 0 -37 27 -194 -1 -182 -31 6 -16 -1 -28 -16 -28 -15 0 -33 14
-40 32 -8 21 -24 27 -47 18 -19 -7 -52 -17 -73 -21 -21 -4 -58 -26 -81 -48
-24 -23 -53 -41 -64 -41 -12 0 -37 -17 -56 -39 -33 -37 -103 -36 -80 1 7 10
20 14 30 7 10 -6 13 3 6 21 -11 28 -18 27 -56 -9 -26 -24 -58 -37 -76 -30 -36
14 -135 -116 -135 -176 0 -19 -10 -35 -21 -35 -12 0 -15 -10 -7 -23 8 -13 3
-19 -14 -13 -21 7 -29 65 -34 243 -7 313 -44 306 -44 -9z m740 41 c0 -19 -63
-35 -95 -24 -14 5 -25 21 -25 36 0 18 12 23 33 15 27 -10 31 -5 20 24 -14 37
-14 37 26 1 23 -21 41 -44 41 -52z m195 56 c-5 -14 4 -34 19 -45 23 -17 22
-27 -5 -60 -17 -22 -26 -29 -20 -15 7 13 3 43 -9 65 -12 22 -16 50 -10 60 18
28 35 25 25 -5z m295 -115 c21 0 30 11 24 28 -9 22 4 24 62 11 40 -9 76 -26
80 -37 4 -13 17 -12 33 4 15 13 22 32 16 41 -5 9 7 8 28 -2 20 -11 71 -26 112
-33 41 -8 75 -21 75 -30 0 -9 -22 -12 -50 -7 -32 6 -50 1 -50 -16 0 -18 -11
-15 -37 8 -20 18 -42 28 -48 21 -34 -34 -296 -15 -325 23 -42 57 -35 87 9 34
21 -25 53 -45 71 -45z m-380 -20 c7 -11 34 -20 61 -20 27 0 49 -8 49 -19 0
-25 -35 -45 -43 -25 -4 9 -43 31 -87 49 -57 24 -68 33 -36 34 24 1 49 -8 56
-19z m-55 -39 c114 -52 108 -58 -48 -46 -87 7 -129 4 -120 -9 6 -12 35 -16 63
-11 27 5 50 1 50 -10 0 -23 -153 -52 -181 -34 -11 6 -19 22 -19 35 0 14 8 12
20 -6 18 -27 29 -14 22 26 -15 89 83 114 213 55z m-323 -36 c27 -18 29 -85 3
-85 -11 0 -15 12 -9 27 7 19 -4 25 -39 22 -40 -5 -45 -1 -26 23 27 32 39 34
71 13z"/>
<path d="M1980 6075 c0 -14 6 -45 13 -70 l12 -45 37 48 c51 65 48 92 -12 92
-27 0 -50 -11 -50 -25z"/>
<path d="M3477 5390 c-39 -39 22 -103 88 -92 8 1 15 -11 15 -28 0 -36 -43 -39
-76 -6 -19 19 -24 19 -24 0 0 -14 32 -40 70 -58 54 -26 70 -46 70 -86 0 -28 9
-61 19 -71 11 -11 12 -49 2 -95 -13 -56 -10 -82 11 -103 15 -16 29 -63 31
-105 2 -51 5 -61 11 -28 l10 48 23 -48 c56 -112 83 -69 87 137 2 107 10 227
17 266 l12 71 -68 -8 c-45 -5 -80 3 -101 25 -18 18 -40 32 -48 32 -9 -1 -16 6
-16 14 0 41 -89 154 -91 115 -2 -37 -3 -37 -16 -4 -8 20 -20 31 -26 24z m215
-282 c9 -50 18 -64 30 -45 10 15 17 18 17 7 0 -87 -56 -84 -66 4 -4 33 -13 71
-21 83 -8 13 -5 23 6 23 11 0 26 -32 34 -72z"/>
<path d="M4008 5066 c6 -31 13 -188 16 -350 l6 -294 70 -12 c108 -18 128 -37
110 -103 -8 -31 -19 -46 -24 -32 -5 14 -22 25 -38 25 -40 0 -35 36 7 45 40 9
-79 48 -265 86 -76 16 -99 26 -62 27 l59 2 -47 50 c-47 50 -140 69 -140 29 0
-12 -17 -16 -38 -10 -21 7 -50 1 -65 -13 -33 -32 -102 -40 -84 -10 9 14 1 15
-25 5 -21 -9 -60 -20 -88 -26 -27 -5 -70 -33 -95 -62 -25 -29 -45 -42 -45 -28
0 14 -16 25 -35 25 -30 -1 -31 -3 -5 -21 31 -21 -79 -139 -129 -139 -12 0 -9
8 6 18 21 13 19 19 -8 29 -24 10 -31 30 -25 73 5 33 0 60 -10 60 -21 0 -72 60
-73 86 -1 9 8 11 19 4 11 -7 20 -1 20 14 -1 29 -39 96 -40 69 0 -10 -12 -8
-27 4 -15 13 -32 17 -38 11 -17 -17 6 -70 25 -58 9 6 14 -6 11 -25 -3 -19 12
-74 32 -122 45 -105 47 -163 7 -163 -17 0 -30 -18 -30 -40 0 -22 13 -40 30
-40 17 0 31 -9 33 -20 1 -11 4 -36 5 -55 4 -35 110 -241 202 -394 26 -43 42
-88 35 -100 -7 -12 1 -10 18 4 24 19 38 19 67 -2 80 -59 593 12 532 73 -15 15
-32 12 -57 -10 -54 -47 -283 -47 -390 0 -77 34 -209 157 -189 177 9 9 400
-137 414 -155 37 -47 136 9 131 74 -6 73 10 85 49 38 21 -25 18 -30 -13 -30
-29 -1 -31 -5 -9 -18 17 -11 21 -28 10 -45 -10 -16 8 -11 43 11 47 31 54 32
32 5 -24 -28 -23 -33 3 -33 17 0 57 32 90 71 l58 71 13 -166 c7 -91 13 -231
13 -311 0 -141 1 -145 45 -135 104 26 695 0 858 -38 151 -35 137 -49 111 108
-15 92 -15 225 0 460 25 369 14 505 -50 648 -24 53 -44 106 -44 116 0 36 -106
158 -130 149 -16 -6 -21 8 -14 42 8 42 4 49 -23 39 -20 -8 -33 -3 -33 12 0 13
-23 25 -50 27 -28 1 -50 -5 -50 -15 0 -10 11 -16 25 -13 14 3 23 -12 22 -34
-2 -21 10 -49 28 -62 19 -14 27 -39 20 -66 -9 -34 -2 -43 32 -43 35 -1 37 -4
13 -20 -22 -14 -23 -19 -4 -20 15 0 21 -9 14 -20 -7 -11 -3 -20 9 -20 11 0 21
-17 21 -38 0 -21 11 -43 25 -48 20 -7 20 -14 0 -36 -29 -30 -34 -66 -6 -49 35
22 45 -32 12 -68 -29 -32 -29 -37 -3 -48 17 -6 36 -3 41 6 6 10 0 22 -14 28
-15 6 -12 10 9 11 38 2 37 -183 -1 -312 -11 -35 -15 -82 -9 -105 6 -22 1 -67
-11 -100 -15 -44 -15 -61 1 -61 12 0 6 -18 -14 -40 -20 -22 -27 -40 -15 -40
21 0 20 -112 -2 -134 -7 -7 -13 -29 -13 -49 0 -21 -9 -37 -20 -37 -11 0 -20
10 -20 21 0 12 -9 16 -21 8 -11 -7 -33 -2 -48 10 -20 16 -29 15 -36 -4 -12
-30 -81 -30 -155 0 -39 16 -52 14 -61 -10 -10 -26 -16 -25 -45 4 -21 21 -34
25 -34 10 0 -18 -7 -18 -30 1 -22 18 -37 19 -57 3 -37 -31 -59 -4 -28 34 16
19 16 26 2 17 -12 -7 -34 0 -47 16 -14 17 -20 30 -15 30 6 0 4 32 -5 71 -13
58 -11 70 11 61 23 -9 24 -3 5 27 -13 21 -31 34 -39 29 -8 -5 -12 46 -9 113 3
70 -1 110 -11 95 -9 -14 -17 -16 -17 -5 0 12 12 38 28 59 15 21 24 48 19 61
-5 12 3 23 17 24 14 2 44 7 66 12 22 6 45 11 50 12 6 1 -6 11 -25 23 -19 11
-43 15 -52 10 -10 -6 -27 11 -40 39 -12 27 -14 49 -4 49 9 0 13 17 7 39 -14
54 47 142 65 94 8 -18 28 -32 46 -31 21 1 24 5 8 11 -14 6 -25 23 -25 39 0 15
-9 28 -21 28 -12 0 -30 27 -42 60 -11 33 -29 55 -40 48 -10 -6 -14 11 -9 40 5
30 0 52 -13 52 -12 0 -16 6 -9 13 7 7 4 28 -7 48 -14 28 -11 38 16 45 26 7 24
10 -10 12 -35 1 -45 14 -45 54 0 37 8 49 29 41 15 -6 39 2 52 18 13 16 44 29
69 29 30 0 49 15 57 45 10 41 9 42 -15 10 -16 -22 -40 -31 -60 -23 -24 9 -27
20 -12 38 15 18 12 29 -13 38 -19 8 -41 2 -50 -12 -12 -19 -16 -17 -17 9 0 22
-15 35 -40 35 -22 0 -40 8 -40 19 0 46 479 -27 604 -91 297 -154 445 -560 396
-1087 -21 -218 -9 -633 18 -650 7 -4 9 66 4 156 -4 90 5 320 19 511 33 445 19
538 -124 818 -160 314 -259 381 -634 424 -187 21 -318 39 -380 52 -42 9 -45 4
-35 -46z m-418 -644 c-54 -21 -170 -43 -170 -32 0 13 122 46 170 47 40 0 40 0
0 -15z m426 -129 c80 -80 86 -294 11 -407 -72 -110 -98 -118 -165 -51 -55 55
-56 55 -87 15 -17 -22 -39 -33 -48 -23 -9 9 1 30 23 47 28 21 32 33 15 40 -37
14 -30 55 15 96 44 40 77 2 52 -61 -6 -18 -3 -26 8 -19 11 7 20 25 20 41 0 16
9 29 21 29 11 0 -3 25 -31 55 -79 83 -104 134 -53 107 22 -12 46 -40 53 -62 7
-22 21 -40 31 -40 20 0 -11 94 -44 134 -12 14 -16 38 -10 54 11 31 -42 30 -92
-1 -14 -9 -61 -15 -105 -13 -44 1 -69 -2 -55 -8 49 -19 24 -45 -42 -42 -112 4
-159 -68 -95 -147 67 -82 228 -29 209 69 -7 41 -7 40 13 -3 16 -38 26 -43 48
-24 18 15 33 16 41 3 19 -32 -89 -117 -167 -133 -65 -12 -68 -15 -28 -30 44
-17 109 -12 146 11 11 7 20 -2 20 -20 0 -18 -9 -27 -20 -20 -12 7 -19 2 -15
-12 6 -29 -120 -62 -137 -35 -6 10 -22 17 -35 15 -55 -7 -92 4 -125 37 -19 19
-49 37 -67 39 -143 16 -202 86 -72 86 28 0 50 14 56 37 8 30 1 36 -31 27 -25
-6 -35 -2 -27 11 7 12 37 19 66 16 36 -4 55 5 62 30 5 20 35 46 67 57 32 11
58 23 58 27 0 15 -145 -4 -167 -22 -58 -46 -117 -49 -89 -5 14 23 42 42 62 42
20 0 32 8 26 17 -21 34 81 60 263 69 128 6 185 2 186 -14 1 -12 9 -3 19 21 23
56 142 34 216 -40z m-724 41 c-20 -13 -63 -45 -95 -71 -31 -26 -57 -37 -57
-25 0 23 139 123 170 121 11 -1 3 -12 -18 -25z"/>
<path d="M3920 4161 c0 -43 -5 -92 -12 -109 -15 -39 12 -41 61 -5 29 21 34 42
23 98 -19 104 -72 116 -72 16z"/>
<path d="M3935 4006 c-29 -7 -53 -86 -27 -86 5 0 23 -5 40 -12 24 -9 30 1 26
50 -2 34 -4 61 -4 60 0 -2 -16 -7 -35 -12z"/>
<path d="M2654 4955 c43 -47 124 -47 121 0 -2 27 -21 35 -78 35 -70 1 -73 -1
-43 -35z"/>
<path d="M2894 4960 c12 -45 147 -48 162 -3 4 13 -5 18 -22 12 -17 -7 -36 -2
-43 10 -26 41 -108 25 -97 -19z"/>
<path d="M1616 4935 c-43 -33 -67 -115 -34 -115 14 0 19 5 13 12 -7 7 5 31 26
54 58 62 54 95 -5 49z"/>
<path d="M3130 4940 c-37 -16 -36 -17 10 -21 162 -11 220 -9 220 5 0 9 -31 16
-68 16 -38 0 -81 4 -95 9 -15 4 -45 0 -67 -9z"/>
<path d="M1670 4820 c-7 -12 -20 -16 -28 -11 -13 8 -82 -110 -82 -140 0 -30
64 -2 80 36 11 25 34 65 52 90 18 25 23 45 12 45 -12 0 -27 -9 -34 -20z"/>
<path d="M1665 4688 c7 -7 -5 -31 -26 -54 -51 -55 -49 -67 13 -83 63 -16 60
-19 74 74 10 67 7 75 -31 75 -23 0 -36 -5 -30 -12z"/>
<path d="M2508 4631 c-7 -31 -21 -45 -35 -37 -13 8 -10 -2 6 -22 31 -38 81 -1
81 61 0 49 -39 48 -52 -2z"/>
<path d="M1965 4447 c-14 -6 -25 -23 -25 -38 0 -29 -75 -89 -109 -88 -12 0 2
13 29 29 58 33 37 41 -23 8 -22 -11 -36 -33 -30 -48 9 -24 -20 -42 -132 -77
-46 -15 -44 -57 5 -138 22 -36 40 -84 40 -108 1 -343 386 -577 764 -464 152
46 353 366 365 581 4 84 12 105 38 103 42 -3 43 45 1 61 -50 19 -118 14 -143
-11 -17 -17 -31 -14 -55 10 -18 18 -41 33 -51 33 -11 0 -19 12 -19 28 0 44
-53 79 -66 44 -15 -39 -94 -17 -94 25 0 33 -20 37 -185 43 -89 3 -204 -11
-232 -28 -14 -9 -23 -2 -23 17 0 32 -11 35 -55 18z m393 -99 c4 -4 -77 -6
-180 -4 -112 2 -164 8 -128 16 56 12 291 3 308 -12z m91 -100 c136 -6 166 -14
208 -56 53 -53 82 -173 32 -131 -16 13 -24 31 -19 39 5 9 -4 21 -21 28 -50 19
-61 -50 -14 -88 33 -27 37 -40 19 -58 -19 -19 -17 -22 9 -12 109 42 -20 -253
-147 -335 -188 -122 -596 -100 -596 32 0 13 -18 35 -41 49 -81 50 -118 257
-68 381 44 109 108 146 264 154 70 3 134 11 141 18 6 7 26 6 43 -1 17 -7 103
-16 190 -20z"/>
<path d="M2374 4148 c10 -27 3 -30 -36 -17 -148 47 -562 -73 -492 -143 6 -7
31 6 54 28 24 22 63 45 87 51 51 13 -73 -98 -132 -118 -19 -6 -35 -24 -35 -38
0 -35 73 -17 88 21 13 34 75 37 107 5 35 -35 96 -4 65 33 -20 24 -20 36 0 60
36 44 70 37 96 -20 24 -52 38 -57 124 -50 60 5 79 31 80 105 0 65 19 69 65 15
19 -22 48 -40 64 -40 18 0 25 -12 18 -30 -8 -22 3 -30 41 -30 29 0 52 10 52
21 0 13 -17 16 -41 9 -26 -9 -38 -5 -35 11 4 13 -20 39 -52 57 -31 18 -55 40
-53 50 4 18 -37 51 -63 52 -8 0 -9 -15 -2 -32z"/>
<path d="M2491 4111 c44 -33 89 -40 89 -13 0 20 -49 42 -95 42 -27 0 -26 -5 6
-29z"/>
<path d="M2469 3872 c-167 -82 -177 -85 -324 -89 -102 -3 -141 -31 -70 -49 19
-5 2 -10 -39 -12 -40 -1 -79 -11 -86 -22 -11 -18 31 -28 104 -26 14 1 23 -9
20 -21 -8 -41 88 -40 99 1 6 26 48 49 133 74 145 43 300 113 285 128 -6 6 -1
22 12 37 35 43 -21 34 -134 -21z"/>
<path d="M1830 3840 c-7 -11 5 -20 25 -20 57 0 69 -22 30 -55 -32 -26 -31 -27
15 -17 28 6 66 12 85 12 19 0 35 14 35 32 0 24 -12 29 -48 20 -30 -7 -57 -1
-72 18 -29 35 -53 38 -70 10z"/>
<path d="M160 3823 c0 -30 -16 -46 -55 -54 -96 -21 -105 -27 -105 -66 0 -30
10 -37 41 -28 23 5 37 22 32 35 -7 17 30 34 114 51 72 15 106 29 83 34 -22 5
-56 23 -75 40 -32 29 -35 28 -35 -12z"/>
<path d="M1478 3771 c-16 -16 6 -191 24 -191 23 0 24 174 1 188 -10 6 -21 7
-25 3z"/>
<path d="M3093 3591 c-6 -16 -3 -57 7 -91 14 -51 11 -64 -16 -75 -84 -32 -95
-71 -18 -62 52 6 74 1 74 -17 0 -14 -13 -26 -28 -26 -15 0 -32 -12 -38 -27
-16 -41 18 -80 56 -66 25 10 31 5 23 -16 -6 -16 -3 -35 7 -41 10 -6 13 -24 7
-41 -14 -36 7 -38 39 -4 30 31 44 103 17 87 -10 -6 -19 8 -20 33 -1 63 -18
156 -31 169 -6 6 -3 26 7 45 13 23 6 53 -22 97 -47 73 -49 74 -64 35z"/>
<path d="M3751 3561 c-19 -21 -29 -48 -22 -60 19 -30 51 -6 51 39 0 20 11 41
25 47 14 6 16 11 3 11 -12 1 -38 -15 -57 -37z"/>
<path d="M3295 3524 c8 -21 4 -26 -13 -15 -19 11 -18 4 1 -27 15 -23 30 -33
34 -22 12 37 39 21 81 -47 51 -83 54 -150 7 -167 -19 -7 -88 -70 -152 -140
-156 -169 -243 -176 -425 -35 -64 50 -137 95 -162 100 -25 5 -68 14 -96 19
-99 21 -27 -73 75 -98 31 -7 55 -26 55 -44 0 -17 9 -25 20 -18 11 7 20 -4 20
-24 1 -27 5 -30 18 -9 13 21 19 20 29 -5 6 -18 31 -32 54 -32 33 0 41 -11 38
-55 -2 -30 -2 -66 -1 -80 3 -34 62 -32 62 3 0 15 14 33 30 39 17 7 30 3 30 -8
0 -10 23 -19 50 -19 28 0 50 8 50 18 0 10 28 28 62 40 43 15 59 31 51 52 -7
16 -4 30 6 30 10 0 64 45 120 101 89 88 107 97 143 78 23 -12 36 -27 30 -34
-6 -6 0 -25 13 -42 20 -24 20 -28 0 -16 -16 10 -25 4 -25 -15 0 -37 73 -109
135 -133 51 -20 59 -82 16 -118 -24 -20 -32 -15 -42 27 -15 60 -11 58 -79 32
-29 -11 -48 -28 -42 -37 20 -33 -63 -86 -175 -112 -61 -14 -114 -18 -117 -10
-8 21 -189 -26 -220 -57 -29 -29 -136 -32 -136 -4 0 11 16 20 35 20 30 1 31 3
5 20 -51 33 -110 26 -80 -10 21 -25 17 -30 -28 -30 -33 0 -52 11 -52 30 0 41
-33 38 -49 -5 -13 -32 -16 -32 -37 -3 -13 17 -69 42 -124 56 -55 14 -128 42
-162 64 -66 40 -188 52 -188 18 0 -11 -9 -20 -20 -20 -65 0 29 175 113 210 49
21 67 40 67 75 0 31 34 79 95 136 52 49 108 114 124 145 16 30 58 74 95 96 64
40 87 78 46 78 -32 0 -107 -47 -136 -85 -14 -19 -36 -35 -48 -35 -25 0 -60
-31 -269 -243 -37 -38 -71 -52 -120 -51 -39 1 -82 -12 -102 -32 -31 -31 -31
-34 -1 -34 18 0 48 15 66 33 25 25 38 27 56 8 19 -18 14 -32 -21 -61 -25 -20
-45 -46 -45 -58 0 -12 -10 -22 -21 -22 -12 0 -16 9 -9 20 7 11 2 20 -10 20
-13 0 -20 -16 -16 -35 4 -19 23 -34 42 -32 28 2 31 -3 12 -25 -24 -29 23 -128
61 -128 9 0 13 -18 7 -40 -8 -28 -1 -40 23 -40 20 0 31 13 27 35 -14 81 247
-11 310 -110 10 -15 35 -20 63 -13 26 6 78 -2 114 -19 188 -87 623 -29 761
101 32 31 76 50 110 50 75 -2 185 57 189 101 1 19 4 44 7 55 3 11 6 29 8 40 1
11 20 20 42 20 22 0 40 9 40 21 0 11 -11 19 -25 18 -84 -10 -132 34 -80 73 33
25 33 27 0 27 -19 1 -33 12 -30 26 3 14 -6 23 -20 20 -14 -3 -25 12 -25 33 0
21 -15 43 -32 50 -25 10 -27 19 -9 40 14 18 16 33 4 40 -11 7 -24 1 -30 -13
-9 -23 -21 33 -15 70 1 8 -7 15 -18 15 -11 0 -18 7 -16 15 7 24 -43 105 -64
105 -11 0 -38 16 -60 35 -53 45 -121 51 -105 9z"/>
<path d="M165 3479 c-25 -10 -45 -27 -45 -37 0 -17 132 25 158 50 16 15 -68 6
-113 -13z"/>
<path d="M2754 3472 c11 -21 16 -54 11 -75 -11 -44 47 -73 80 -40 17 17 5 40
-44 88 -37 36 -58 48 -47 27z"/>
<path d="M2867 3350 c-15 -41 28 -90 80 -90 41 0 41 1 -4 32 -25 18 -41 45
-35 60 6 15 2 28 -9 28 -11 0 -25 -14 -32 -30z"/>
<path d="M3802 3342 c-1 -27 -17 -65 -35 -85 -20 -22 -24 -37 -10 -37 13 0 23
-27 23 -60 0 -41 10 -60 31 -60 24 0 26 -8 9 -40 -22 -42 43 -144 73 -114 29
29 22 132 -10 144 -28 11 -28 15 -2 31 20 13 22 24 7 34 -45 31 -72 105 -39
105 38 0 40 32 4 54 -15 9 -32 30 -38 46 -8 19 -12 12 -13 -18z"/>
<path d="M1702 3323 c-44 -81 -13 -117 35 -41 17 28 20 49 6 63 -13 13 -27 5
-41 -22z"/>
<path d="M4228 3146 c-7 -31 -19 -65 -25 -76 -7 -11 -15 -33 -18 -50 -4 -16
-9 -42 -12 -57 -3 -15 -21 -36 -39 -46 -18 -10 -27 -31 -21 -48 8 -19 -2 -29
-29 -29 -47 0 -68 -42 -40 -82 16 -23 18 -22 9 5 -13 41 36 64 64 31 23 -28
-21 -102 -47 -79 -8 8 -4 -7 11 -35 23 -44 22 -47 -5 -24 -26 20 -33 20 -43
-5 -15 -39 5 -94 29 -80 10 7 12 22 4 35 -7 13 2 12 21 -4 30 -24 32 -23 20 8
-8 21 -6 32 5 25 10 -6 19 16 20 49 3 71 43 104 87 71 25 -19 27 -18 7 4 -25
28 12 106 74 155 23 18 25 29 7 47 -39 40 -10 88 31 51 24 -22 41 -24 62 -9
25 17 25 19 -4 10 -45 -14 -83 37 -85 113 -1 85 -64 100 -83 20z"/>
<path d="M5084 3126 c-40 -16 10 -64 55 -52 35 9 91 -28 187 -124 22 -22 34
-29 26 -15 -17 30 20 34 39 4 7 -12 27 -18 45 -15 33 6 124 -64 124 -96 0 -10
-9 -4 -20 12 -28 43 -24 1 8 -107 16 -51 24 -109 19 -128 -9 -36 143 -102 170
-74 16 16 -99 110 -119 97 -9 -5 -16 34 -16 87 -2 195 -8 210 -93 246 -64 27
-71 35 -39 43 33 8 30 12 -20 26 -33 8 -76 32 -96 53 -54 57 -79 44 -44 -23
41 -78 15 -76 -92 10 -92 73 -93 73 -134 56z"/>
<path d="M3064 3097 c5 -13 34 -27 65 -31 50 -7 53 -5 25 23 -36 36 -101 42
-90 8z"/>
<path d="M4460 3109 c0 -30 90 -150 97 -129 5 16 24 0 47 -42 38 -68 37 -59
-16 92 -24 66 -128 131 -128 79z"/>
<path d="M4630 3085 c8 -19 19 -51 25 -70 5 -19 17 -30 27 -24 10 6 12 -5 4
-24 -10 -27 -21 -16 -49 49 -19 46 -40 84 -46 84 -6 0 9 -47 32 -105 24 -58
56 -143 72 -190 16 -46 37 -80 45 -75 25 15 41 -48 28 -107 -9 -43 -7 -47 12
-23 19 24 21 19 11 -27 -8 -33 -5 -52 6 -45 11 7 15 -4 10 -23 -5 -19 5 -71
21 -115 16 -44 30 -69 31 -56 0 13 -8 48 -20 77 -11 30 -16 58 -12 63 5 5 20
-26 32 -68 39 -125 65 -186 80 -186 20 0 13 56 -17 145 -14 41 -19 83 -12 95
18 30 -9 103 -34 88 -13 -8 -15 3 -6 32 9 27 7 40 -5 33 -11 -7 -15 10 -9 41
7 38 3 48 -15 36 -19 -11 -22 -4 -12 27 8 25 5 43 -7 43 -11 0 -15 15 -8 33 9
23 5 29 -11 19 -18 -11 -21 0 -11 41 12 55 12 56 -20 17 -31 -38 -31 -38 -12
18 12 32 16 62 11 68 -6 6 -11 0 -11 -13 0 -40 -31 -25 -35 17 -1 24 6 35 18
28 34 -21 -2 78 -39 107 -48 38 -91 32 -74 -10z"/>
<path d="M4789 3036 c7 -84 101 -432 123 -455 6 -6 5 16 -3 49 l-13 60 36 -50
c21 -27 40 -68 43 -89 12 -81 35 -66 37 25 1 56 -3 78 -12 55 -23 -68 -76 69
-70 182 3 53 1 84 -6 67 -6 -18 -28 23 -53 99 -49 154 -91 183 -82 57z"/>
<path d="M4980 3057 c0 -6 13 -44 30 -83 18 -44 25 -106 20 -164 -9 -85 37
-310 63 -310 5 0 5 18 -2 40 -6 22 -16 59 -23 83 -8 29 -5 38 11 28 33 -21 14
261 -25 349 -17 39 -32 57 -33 40 -1 -27 -4 -27 -21 0 -11 17 -20 24 -20 17z"/>
<path d="M5120 3015 c-1 -37 -4 -40 -22 -15 -18 25 -20 24 -10 -7 7 -20 12
-47 12 -60 1 -17 4 -17 16 1 8 13 16 -12 17 -55 1 -43 13 -92 26 -108 14 -16
19 -38 13 -48 -7 -10 2 -58 19 -106 43 -122 53 -277 17 -263 -15 5 -23 18 -17
27 5 9 -2 47 -18 83 l-27 66 1 -104 c0 -57 8 -99 17 -94 8 6 12 -2 8 -16 -22
-70 -30 -157 -13 -147 10 6 22 0 26 -14 5 -14 5 -1 1 28 -5 29 0 59 11 65 12
8 18 -45 14 -138 -5 -159 -26 -229 -26 -89 0 111 -44 157 -47 48 -1 -43 -5
-124 -8 -179 -5 -64 7 -138 31 -204 21 -57 30 -109 21 -115 -9 -5 -12 -34 -6
-63 7 -39 3 -50 -14 -39 -14 8 -20 28 -14 43 6 15 1 28 -11 28 -14 0 -11 13 6
34 18 23 19 29 2 19 -16 -10 -26 -2 -28 21 -7 103 -15 131 -59 196 -68 99 -72
44 -11 -166 75 -262 86 -285 127 -271 33 11 33 10 3 -15 -46 -39 45 -259 161
-390 46 -53 108 -140 137 -194 30 -54 57 -87 62 -74 4 13 33 -15 64 -62 31
-47 72 -88 90 -90 43 -6 64 -28 27 -28 -18 0 -28 -21 -28 -58 0 -32 8 -53 18
-47 11 6 13 -3 7 -20 -7 -18 -7 -35 1 -39 23 -10 109 -198 96 -210 -6 -7 4
-23 23 -37 27 -20 29 -31 9 -54 -13 -16 -18 -35 -10 -42 23 -24 86 -14 86 14
0 15 18 43 40 63 22 20 40 51 40 69 0 31 -149 161 -184 161 -42 0 -8 80 64
150 99 97 100 112 5 98 l-75 -10 -22 92 -21 92 56 -13 c35 -7 57 -4 57 9 0 12
-11 22 -23 22 -13 0 -18 5 -12 12 7 7 43 -11 79 -39 l67 -51 4 49 c5 53 -14
62 -182 77 -138 12 -148 30 -86 154 59 118 68 194 25 210 -16 6 -34 24 -40 41
-7 19 -3 24 12 15 15 -10 19 -4 10 19 -9 25 -1 33 32 34 42 0 41 3 -15 48 -32
27 -61 68 -65 92 -6 38 -2 41 25 18 25 -20 26 -29 5 -44 -19 -13 -16 -15 10
-7 21 7 31 3 24 -8 -7 -11 0 -15 15 -9 32 12 124 -79 108 -106 -6 -10 20 -49
58 -86 38 -37 69 -60 69 -52 0 8 -25 38 -55 66 -45 41 -48 48 -15 39 37 -11
37 -10 6 15 -37 28 -76 115 -76 168 0 20 25 4 72 -47 l71 -78 -71 92 c-93 119
-92 151 2 48 73 -81 56 -49 -30 58 l-47 59 46 25 47 25 -88 81 c-49 45 -82 82
-73 82 9 0 5 14 -9 30 -14 17 -16 30 -5 30 11 0 31 -14 45 -30 29 -35 69 -41
48 -7 -9 15 -5 18 9 9 13 -8 19 -22 14 -30 -5 -9 19 -42 54 -74 36 -32 48 -38
28 -14 -20 24 -32 52 -25 62 16 26 -61 91 -88 74 -12 -7 -54 12 -93 43 -39 31
-99 75 -132 98 -57 38 -99 189 -54 189 7 0 9 25 3 55 l-11 55 -15 -50 -14 -50
-2 55 c-1 30 8 55 19 55 12 0 16 9 9 20 -7 11 -5 20 4 20 9 0 16 27 16 60 0
33 -10 60 -22 60 -58 0 -48 -453 10 -464 23 -5 33 -31 34 -96 4 -148 7 -160
39 -160 17 0 26 9 19 20 -7 11 -2 20 11 20 13 0 18 -13 12 -29 -6 -17 -1 -36
11 -43 13 -8 17 -5 9 7 -38 61 51 34 100 -31 55 -73 55 -73 7 -41 -28 19 -48
43 -45 55 2 11 -10 15 -27 8 -26 -9 -21 -20 25 -57 61 -48 73 -103 32 -146
-14 -14 -19 -37 -11 -50 8 -12 -8 -9 -35 9 -27 18 -60 54 -73 80 -13 26 -38
57 -54 69 -17 12 -33 56 -35 97 -3 41 -12 79 -21 85 -21 13 -20 -116 2 -150 9
-15 10 -56 3 -91 -10 -44 -6 -71 13 -89 24 -23 27 -14 19 56 -7 58 -3 81 13
76 13 -5 27 -50 30 -102 6 -83 3 -92 -29 -80 -34 11 -34 10 1 -17 26 -21 41
-61 45 -124 3 -51 16 -111 28 -134 12 -23 18 -46 12 -52 -16 -15 -55 14 -43
33 5 9 -6 23 -25 30 -29 11 -30 16 -4 32 22 14 23 18 2 19 -19 0 -24 22 -17
80 5 45 1 86 -9 92 -9 6 -19 -33 -21 -86 -3 -84 -5 -78 -16 44 l-13 140 -3
-145 c-2 -83 4 -145 15 -145 11 0 14 -14 8 -31 -8 -19 -2 -29 16 -25 18 4 25
-9 21 -39 -5 -35 1 -42 28 -31 30 11 33 4 21 -53 -7 -36 -13 -73 -13 -81 0
-22 -108 2 -125 28 -8 12 -15 -7 -15 -42 0 -35 -11 -70 -23 -78 -16 -10 -20
-4 -11 19 7 18 5 33 -4 33 -10 0 -23 20 -29 45 -6 25 -29 65 -51 88 -22 24
-36 46 -31 51 20 20 -39 165 -88 213 -50 50 -53 64 -55 253 -2 143 2 180 14
130 11 -50 13 -31 6 66 -5 75 -3 146 5 160 20 31 36 195 33 342 -1 65 4 108
11 96 8 -11 14 83 15 210 0 128 -6 215 -14 194 -11 -29 -18 -16 -29 51 -12 71
-19 82 -31 50 -10 -23 -12 -2 -6 51 9 71 6 84 -12 60 -20 -25 -22 -23 -14 14
6 26 -2 48 -18 54 -15 6 -28 29 -28 51 0 23 -9 41 -20 41 -11 0 -20 -20 -20
-45z m600 -1145 c28 -30 37 -50 21 -50 -21 0 -20 -7 2 -34 15 -19 -1 -13 -38
14 -74 54 -80 64 -30 46 31 -11 31 -8 -3 31 -53 60 -9 54 48 -7z m-120 -1045
c1 -30 3 -31 20 -5 17 26 19 25 20 -5 0 -21 -15 -35 -39 -35 -44 0 -69 30 -51
60 20 32 50 23 50 -15z"/>
<path d="M4438 2802 c5 -62 12 -96 17 -77 4 20 16 31 26 25 10 -7 9 -33 -2
-62 -10 -28 -18 -66 -18 -84 1 -19 20 24 43 95 30 91 35 131 19 137 -13 4 -23
19 -23 33 0 15 -16 30 -35 36 -31 8 -34 -4 -27 -103z"/>
<path d="M4338 2867 c-23 -28 -23 -31 -1 -18 21 12 24 5 14 -31 -13 -47 -13
-47 20 -8 33 40 33 40 20 -5 -7 -24 -4 -60 8 -80 17 -27 20 -14 16 63 -5 106
-32 134 -77 79z"/>
<path d="M3826 2809 c-2 -46 6 -69 24 -69 17 0 24 19 21 51 -9 82 -41 94 -45
18z"/>
<path d="M4570 2800 c5 -27 10 -63 10 -80 1 -27 3 -27 20 0 25 38 26 106 2 91
-10 -6 -24 0 -31 14 -6 14 -7 3 -1 -25z"/>
<path d="M5631 2706 c-8 -22 -1 -44 22 -60 56 -42 70 -30 34 29 -19 30 -37 58
-38 61 -2 3 -10 -10 -18 -30z"/>
<path d="M4170 2608 c-95 -109 -106 -141 -57 -181 20 -16 26 -24 12 -17 -34
17 -30 -12 8 -60 30 -39 31 -39 17 8 -10 32 -7 43 8 33 13 -8 17 -1 10 18 -8
20 -1 31 20 31 18 0 32 -10 32 -21 0 -12 10 -15 22 -8 15 10 18 -5 9 -46 -15
-67 7 -84 124 -98 43 -5 66 1 68 17 7 55 7 284 1 251 -4 -20 -15 -30 -26 -24
-10 6 -19 -36 -21 -95 -1 -59 -7 -84 -12 -56 -9 47 -11 47 -26 10 -14 -34 -16
-35 -18 -5 0 19 -9 35 -20 35 -24 0 -13 152 14 185 29 35 -5 115 -49 114 -20
0 -72 -41 -116 -91z"/>
<path d="M3610 2590 c22 -131 31 -150 71 -150 22 0 39 9 39 20 0 11 -8 20 -18
20 -11 0 -30 34 -43 75 -35 110 -65 131 -49 35z"/>
<path d="M1640 2479 c0 -89 11 -157 29 -185 16 -25 65 -154 108 -288 95 -293
206 -590 216 -579 4 4 -24 90 -63 192 -38 101 -70 190 -70 198 1 26 120 -223
120 -251 0 -21 9 -23 35 -8 26 15 46 9 80 -23 55 -52 107 -64 91 -21 -8 21
-16 23 -26 6 -10 -16 -18 -14 -27 9 -7 19 -4 28 7 21 11 -7 20 -1 21 14 0 14
19 -8 40 -49 22 -41 47 -75 56 -75 8 0 33 -14 54 -30 38 -30 38 -30 -1 -18
-29 9 -33 7 -13 -8 15 -10 42 -15 60 -11 22 6 42 -12 60 -53 16 -37 38 -58 54
-52 14 5 37 -3 50 -19 13 -16 45 -29 70 -29 26 0 52 -9 58 -19 14 -22 71 -5
71 21 0 9 -13 12 -30 5 -16 -6 -30 -1 -30 11 0 12 12 22 27 22 14 0 47 22 72
49 26 28 54 45 64 39 9 -5 48 14 87 43 83 64 93 48 15 -24 l-55 -50 72 51 c79
57 116 68 79 24 -16 -20 -17 -32 -1 -42 15 -10 14 -23 -4 -45 -20 -24 -12 -23
34 5 77 49 88 59 45 44 -19 -7 -35 -4 -35 7 0 10 20 20 45 21 25 0 35 5 22 11
-41 17 -4 83 76 137 115 76 127 55 35 -65 -44 -58 -70 -105 -59 -105 43 0 19
-36 -33 -49 -29 -8 -77 -30 -105 -50 -117 -82 -301 -158 -301 -124 0 11 27 26
60 33 33 7 60 22 60 33 0 11 7 15 15 10 8 -5 27 4 41 19 21 23 19 28 -14 28
-22 0 -46 -10 -53 -22 -7 -12 -31 -17 -52 -11 -55 14 -90 -65 -57 -127 17 -32
29 -38 39 -21 12 18 19 16 27 -7 18 -46 80 -16 67 32 -8 31 -5 34 19 14 24
-19 27 -17 16 14 -11 31 -9 33 12 14 21 -20 36 -15 70 22 91 98 198 118 176
33 -6 -22 -18 -36 -26 -31 -9 6 -12 -6 -7 -26 5 -20 -4 -74 -20 -121 -16 -46
-25 -104 -19 -129 8 -36 6 -39 -13 -14 -18 23 -20 15 -9 -40 18 -85 18 -106
-8 -220 l-20 -90 -2 80 c-2 44 -15 96 -30 115 -35 46 -51 44 -38 -5 6 -22 18
-35 27 -29 9 5 8 -20 -2 -55 -11 -36 -18 -84 -17 -106 2 -33 5 -31 17 10 13
42 9 -326 -5 -479 -5 -56 55 -82 93 -40 15 17 16 21 1 13 -34 -20 -72 81 -48
126 11 21 24 103 30 184 5 80 18 173 29 206 16 48 18 29 12 -90 -6 -101 -3
-130 8 -90 13 49 17 52 19 15 4 -87 42 -44 44 50 2 93 2 94 20 30 11 -36 24
-65 29 -65 11 0 -10 99 -28 129 -6 11 -12 38 -13 60 -2 23 -6 91 -9 151 -4 61
-10 88 -14 60 -24 -153 -31 -183 -40 -174 -18 19 -26 216 -8 204 10 -5 13 8 7
29 -11 43 92 381 116 381 8 0 12 22 9 49 -3 27 0 48 7 48 46 -6 58 10 54 68
-6 68 25 139 52 123 9 -6 16 0 16 12 0 12 8 17 19 11 10 -6 24 -2 31 9 7 12 6
20 -4 18 -47 -8 -48 7 -4 55 26 29 35 46 18 36 -26 -14 -26 -12 -3 16 15 19
44 39 65 46 21 6 34 19 28 28 -5 9 4 22 21 29 18 6 26 3 19 -8 -7 -11 -1 -20
14 -21 14 0 8 -11 -14 -25 -38 -23 -52 -50 -57 -114 -2 -16 -12 -37 -23 -45
-13 -9 -13 -14 1 -15 12 0 39 13 60 29 57 43 82 38 28 -6 -29 -24 -35 -37 -17
-37 15 -1 53 -6 83 -12 69 -14 79 78 15 136 -22 20 -40 48 -40 62 0 42 113
208 130 192 9 -7 11 2 4 21 -14 38 22 135 49 135 9 0 17 14 17 31 0 74 59 175
88 150 24 -19 27 -16 18 19 -9 32 0 45 34 54 39 10 43 21 34 93 -8 53 -5 71 7
52 28 -45 22 -12 -13 73 l-32 76 -27 -49 c-15 -27 -47 -98 -71 -159 -95 -236
-527 -780 -621 -780 -16 0 -64 -19 -108 -41 -247 -129 -509 -23 -917 369 -76
72 -145 132 -155 132 -29 0 -19 -55 13 -67 34 -13 41 -53 9 -53 -23 0 -79 49
-79 69 0 6 -33 45 -73 86 -39 41 -116 167 -169 280 -115 244 -118 245 -118 64z
m447 -570 c76 -61 184 -134 240 -163 212 -106 239 -177 37 -96 -66 27 -70 27
-34 -1 41 -31 388 -149 440 -149 17 0 30 -14 30 -32 0 -20 11 -28 30 -21 20 8
30 -1 30 -28 0 -21 -7 -37 -15 -35 -8 2 -51 -8 -95 -22 -117 -38 -250 -58
-250 -39 0 9 26 17 59 17 68 0 101 32 35 33 -140 4 -182 10 -149 24 29 11 18
23 -55 63 -49 27 -90 57 -90 67 0 9 -56 70 -125 135 -127 119 -133 142 -25 88
l60 -30 -54 48 c-29 26 -61 51 -70 55 -28 12 -172 197 -153 197 9 0 79 -50
154 -111z"/>
<path d="M1558 2535 c-2 -25 -2 -52 0 -60 1 -8 -7 -15 -18 -15 -24 0 -18 -44
10 -65 12 -9 10 -15 -6 -15 -15 0 -21 -9 -14 -20 7 -11 2 -20 -10 -20 -12 0
-17 -9 -10 -20 7 -11 -1 -14 -19 -8 -18 7 -36 -1 -43 -21 -7 -18 -24 -29 -38
-24 -33 13 -95 -63 -76 -93 29 -46 33 -86 36 -364 3 -202 0 -241 -9 -140 l-14
140 -3 -123 c-3 -103 -10 -122 -39 -120 -25 2 -37 -15 -43 -57 -8 -59 -8 -60
-22 -10 -19 68 -20 -863 -1 -1000 l15 -110 3 116 c2 82 10 112 26 102 15 -9
18 -5 9 9 -8 13 -22 19 -31 13 -10 -5 -17 151 -18 347 l0 357 58 -59 c33 -32
60 -73 60 -92 2 -27 5 -26 17 6 30 76 42 -26 42 -360 0 -245 10 -379 40 -533
22 -113 40 -226 40 -251 0 -25 8 -45 18 -45 10 0 15 16 10 35 -73 331 -136
1262 -75 1110 6 -14 19 -20 29 -14 10 6 19 -5 20 -25 1 -22 5 -26 11 -10 6 14
0 39 -14 56 -18 20 -19 36 -4 51 14 14 30 6 53 -26 17 -25 32 -36 32 -25 0 23
-60 84 -85 87 -8 0 -19 2 -25 4 -5 1 -19 4 -30 7 -11 3 -30 6 -41 8 -12 1 -16
11 -9 22 7 12 6 19 -4 17 -24 -5 -94 27 -111 52 -18 26 -20 103 -2 85 7 -7 30
6 50 29 25 29 37 34 37 15 1 -23 3 -24 18 -1 12 20 27 -2 51 -75 19 -56 39
-102 44 -102 9 0 -3 48 -30 120 -8 24 -4 23 23 -4 19 -18 34 -50 34 -70 0 -20
10 -49 22 -66 19 -26 20 -26 11 3 -8 25 0 30 30 22 38 -10 40 -22 30 -173 -7
-89 -5 -139 4 -112 8 28 12 -40 9 -154 -3 -112 3 -209 13 -215 11 -7 16 47 11
134 -8 142 14 64 34 -120 3 -26 18 -45 38 -45 24 0 31 14 25 55 -6 47 -5 49
11 15 11 -22 21 -98 23 -170 l5 -130 14 140 c9 80 7 150 -3 163 -10 13 -13 49
-6 80 7 35 5 48 -5 32 -11 -15 -19 18 -20 90 -1 63 -30 255 -65 425 -73 366
-98 633 -94 995 2 146 -3 265 -12 265 -8 0 -16 -20 -17 -45z m-27 -335 c-21
-7 -24 -19 -11 -40 28 -43 24 -60 -11 -60 -18 0 -28 14 -25 33 3 18 -7 37 -24
41 -27 8 -27 6 0 -14 25 -20 23 -22 -14 -14 -24 5 -47 2 -50 -8 -3 -10 -18 0
-32 24 -25 38 -23 40 20 27 25 -8 40 -7 32 1 -32 33 32 64 89 42 39 -15 47
-24 26 -32z m-26 -112 c31 -11 35 -41 34 -245 -1 -149 -8 -219 -19 -193 -16
38 -17 37 -19 -6 -1 -51 68 -215 99 -234 11 -7 20 -26 20 -43 0 -26 -3 -27
-30 0 -16 17 -30 41 -30 55 0 14 -5 20 -11 14 -6 -6 -42 19 -80 56 l-69 67 0
241 c0 147 8 240 20 240 11 0 20 -34 20 -75 0 -41 9 -88 20 -105 14 -21 19 7
20 95 0 98 -7 125 -30 125 -16 0 -30 10 -30 22 0 12 11 16 25 10 14 -7 41 -18
60 -24z"/>
<path d="M1507 1890 c0 -99 3 -142 8 -96 4 47 4 128 0 180 -4 53 -8 15 -8 -84z"/>
<path d="M4530 2555 c-8 -19 -9 -48 -3 -65 7 -16 3 -30 -8 -30 -10 0 -18 -16
-17 -35 1 -21 5 -25 11 -10 7 17 22 11 49 -20 l39 -45 -12 80 c-9 59 -7 72 9
50 13 -19 22 -21 22 -6 0 13 -12 31 -27 40 -15 9 -32 30 -38 46 -9 25 -13 24
-25 -5z"/>
<path d="M4670 2520 c9 -52 7 -62 -8 -40 -19 27 -21 27 -21 0 0 -43 38 -102
39 -60 2 60 35 -26 78 -200 22 -93 46 -192 53 -220 10 -40 8 -44 -10 -20 -19
24 -22 18 -15 -30 4 -33 4 -47 -1 -32 -7 22 -12 23 -25 2 -24 -38 -124 306
-109 375 9 38 6 47 -7 28 -16 -23 -21 -23 -31 0 -6 15 -6 1 1 -31 9 -43 6 -54
-13 -43 -20 13 -20 7 -1 -28 13 -25 19 -49 14 -54 -5 -5 3 -56 18 -113 35
-132 33 -169 -4 -64 -29 81 -28 65 5 -105 11 -57 7 -65 -32 -65 -28 0 -38 8
-29 23 10 17 -3 20 -45 11 -57 -11 -60 -8 -93 104 -49 164 -97 225 -81 102 6
-49 18 -94 26 -100 8 -5 27 -39 42 -74 28 -65 88 -104 165 -108 33 -2 30 -6
-16 -16 -33 -8 -58 -26 -54 -40 3 -17 -9 -21 -40 -11 -37 11 -41 8 -22 -12 26
-27 137 4 176 51 11 13 45 30 75 37 62 16 72 46 20 59 -19 5 12 10 70 12 127
2 125 -5 44 268 -33 112 -56 227 -51 254 6 28 6 39 0 26 -19 -42 -69 -5 -57
42 8 29 -3 62 -31 93 l-42 49 12 -70z"/>
<path d="M4928 2489 c0 -38 6 -59 13 -48 7 12 29 -29 48 -91 20 -62 30 -118
23 -124 -7 -7 -12 4 -12 24 0 20 -5 31 -12 25 -15 -15 71 -318 98 -345 13 -13
15 -7 7 17 -30 85 -37 144 -13 113 18 -24 20 -20 8 20 -13 44 -24 175 -32 376
-2 48 -8 58 -20 36 -20 -35 -76 -21 -76 19 0 15 -7 31 -16 37 -9 5 -16 -21
-16 -59z"/>
<path d="M5765 2470 c-19 -13 -55 -22 -79 -20 -24 2 -40 -4 -34 -13 6 -10 0
-17 -12 -17 -13 0 -21 -38 -21 -95 1 -52 -3 -144 -7 -205 -12 -137 59 -229 96
-125 6 19 17 46 23 58 7 16 -2 20 -27 14 -45 -12 -76 44 -33 61 16 6 26 0 24
-13 -13 -63 85 -17 111 52 8 22 26 33 43 26 19 -7 25 -1 18 18 -6 16 8 61 32
101 40 69 41 74 7 102 -20 16 -25 23 -11 16 14 -7 25 -3 25 8 0 11 15 15 33 8
22 -8 30 -4 23 16 -12 36 -162 41 -211 8z m78 -80 c33 0 37 -46 9 -100 -11
-22 -21 -49 -21 -60 -1 -11 -21 -29 -46 -40 -25 -11 -41 -30 -37 -43 5 -13 -5
-29 -24 -36 -18 -7 -26 -7 -18 1 8 8 0 37 -18 64 -18 27 -24 44 -13 37 10 -6
17 23 17 66 -1 42 -9 73 -18 67 -9 -6 -12 -23 -6 -39 7 -16 3 -24 -7 -18 -32
20 -14 83 25 86 24 2 34 -7 27 -24 -5 -14 14 -50 44 -78 50 -49 55 -49 57 -13
2 22 -5 44 -15 51 -11 6 -19 1 -19 -12 0 -18 -8 -17 -30 1 -21 18 -24 33 -10
49 11 14 13 32 5 41 -8 9 -3 9 12 1 21 -12 24 -5 13 31 -14 47 -13 47 16 8 17
-22 43 -40 57 -40z"/>
<path d="M3200 2376 c0 -17 -15 -37 -32 -44 -23 -9 -29 -4 -21 17 7 19 1 25
-18 18 -16 -6 -29 -22 -29 -34 0 -13 -8 -11 -19 6 -15 24 -23 24 -49 2 -18
-15 -32 -17 -32 -5 0 11 -18 16 -40 10 -22 -6 -40 -2 -40 10 0 11 -22 18 -50
17 -33 -2 -50 -15 -50 -38 0 -19 -9 -35 -20 -35 -11 0 -20 12 -20 28 0 32 -75
57 -91 30 -7 -10 -19 -14 -27 -9 -9 5 -12 -12 -7 -39 5 -27 17 -45 26 -39 10
6 15 21 11 35 -3 13 -2 17 3 9 5 -8 17 -10 26 -4 10 6 14 -2 7 -18 -6 -16 -1
-35 11 -42 11 -7 21 -3 21 9 0 12 9 17 21 9 12 -7 37 6 57 29 43 49 71 55 55
12 -14 -36 47 -42 82 -7 16 16 21 8 16 -31 -7 -63 -9 -66 -61 -75 -22 -4 -46
-15 -53 -25 -7 -9 -34 -12 -60 -6 -26 7 -55 12 -64 12 -9 0 -28 15 -42 34 -28
39 -33 -20 -5 -65 21 -34 409 -33 484 2 59 27 58 28 -56 27 -124 -1 -155 11
-118 48 15 15 16 31 3 47 -13 16 -10 32 11 49 21 17 30 18 30 2 0 -12 19 -22
41 -22 23 0 36 -9 29 -20 -23 -38 46 -43 113 -8 75 38 144 108 124 126 -7 7
-16 1 -21 -13 -12 -32 -91 -32 -122 -1 -19 19 -24 17 -24 -8z"/>
<path d="M5380 2378 c0 -31 25 -78 42 -78 10 0 18 21 18 47 0 28 -12 46 -30
46 -16 0 -30 -6 -30 -15z"/>
<path d="M1210 2271 c-44 -39 -91 -79 -104 -90 -13 -12 -37 -21 -53 -21 -43 0
-81 -53 -51 -71 14 -9 19 -7 11 6 -18 29 62 46 85 17 14 -16 8 -31 -19 -48
-21 -13 -39 -36 -38 -49 0 -14 30 7 65 47 35 40 77 76 92 81 16 5 31 26 34 45
4 30 -6 26 -53 -19 -32 -31 -64 -51 -71 -44 -7 7 36 58 95 113 122 115 127
137 7 33z"/>
<path d="M3944 2247 c-3 -129 -78 -305 -183 -426 -48 -55 -59 -140 -13 -97 15
14 25 31 21 38 -12 20 85 64 109 49 12 -7 22 -5 22 6 0 11 -11 24 -25 30 -14
5 -6 11 17 11 34 2 41 -7 33 -46 -10 -54 -96 -105 -112 -66 -15 36 -15 -57 -1
-95 10 -25 19 -27 40 -9 20 17 28 17 28 0 0 -12 -9 -22 -20 -22 -29 0 -25 -27
12 -71 28 -35 30 -35 20 -3 -7 22 -4 31 10 23 11 -7 16 -26 10 -41 -6 -16 7
-58 28 -93 52 -85 50 -119 -2 -55 -42 50 -42 50 0 -22 40 -69 40 -78 11 -160
-31 -88 -27 -138 10 -138 12 0 21 16 22 35 1 42 117 -171 117 -215 0 -16 -26
20 -58 80 -32 61 -58 101 -58 90 0 -11 12 -42 28 -70 36 -63 38 -102 2 -55
-23 31 -30 31 -51 7 -19 -24 -15 -38 18 -71 43 -43 92 -39 70 5 -7 13 6 2 30
-26 35 -42 40 -44 30 -10 -11 36 -8 36 28 -6 59 -66 34 -122 -27 -64 -30 29
-50 36 -59 21 -8 -12 -2 -20 13 -16 14 3 24 -6 21 -19 -7 -38 127 -216 160
-211 20 4 29 -10 27 -39 -1 -29 11 -48 35 -52 30 -6 34 1 24 39 -13 45 -12 46
18 8 34 -42 40 -70 16 -73 -8 0 -31 -4 -50 -8 -24 -4 -56 23 -96 82 -34 48
-67 88 -74 88 -7 0 -2 -11 11 -24 35 -35 29 -65 -7 -35 -18 15 -3 -20 33 -77
63 -103 100 -142 57 -62 -37 69 -7 64 40 -6 27 -41 39 -50 32 -24 -8 29 -2 41
20 41 18 0 26 -11 20 -27 -6 -16 -2 -23 9 -16 11 7 20 28 21 46 0 25 8 20 29
-16 39 -67 37 -78 -10 -66 -46 12 -47 8 -20 -64 11 -30 12 -47 1 -41 -10 6
-24 -7 -31 -29 -7 -22 -21 -36 -30 -30 -9 6 -30 -3 -46 -19 -25 -25 -32 -22
-51 21 -31 68 -29 78 12 45 32 -24 32 -24 8 8 -15 19 -34 31 -42 26 -8 -5 -35
29 -61 75 -26 46 -72 122 -104 169 -32 46 -45 79 -30 74 16 -6 40 -33 55 -60
14 -27 34 -49 44 -49 9 0 12 -9 5 -19 -6 -11 7 -38 29 -60 23 -23 35 -41 29
-41 -7 0 -1 -14 13 -31 15 -18 33 -23 43 -13 17 17 -108 252 -147 276 -27 16
-20 41 11 41 16 0 24 -13 19 -31 -7 -22 -2 -20 14 5 17 27 17 43 1 59 -16 16
-22 16 -22 0 0 -24 -49 -23 -73 1 -8 8 -25 -5 -38 -28 -38 -72 -129 53 -124
171 2 48 12 82 21 76 10 -6 8 8 -5 32 -16 30 -16 42 -1 42 13 0 17 8 11 19 -7
10 6 35 27 55 38 36 38 37 -10 96 -27 33 -43 44 -36 24 8 -23 0 -45 -23 -62
-22 -16 -31 -39 -22 -60 8 -23 5 -29 -11 -20 -15 10 -18 4 -9 -19 7 -18 19
-48 26 -66 9 -23 6 -29 -10 -19 -13 8 -23 3 -23 -11 0 -14 -12 -9 -27 12 -36
50 -60 -28 -31 -104 10 -28 15 -54 11 -59 -15 -15 -53 118 -40 141 9 17 6 17
-11 1 -18 -17 -14 -48 19 -135 40 -107 39 -193 -2 -193 -11 0 -19 -13 -19 -30
0 -16 14 -30 31 -30 17 0 26 8 20 18 -6 10 3 16 19 14 38 -6 58 -34 210 -295
110 -190 163 -258 89 -115 -17 32 -24 69 -17 82 9 13 5 17 -8 9 -26 -17 -72
59 -53 88 6 11 0 18 -15 14 -18 -3 -24 14 -20 61 4 40 -9 93 -34 135 -51 86
-38 88 42 4 l62 -65 -44 64 c-45 66 -78 95 -110 96 -10 0 -21 22 -26 50 -7 47
-3 45 69 -25 83 -81 218 -289 199 -307 -6 -7 -25 16 -43 50 -18 34 -37 62 -42
62 -6 0 -1 -17 10 -39 31 -56 24 -77 -10 -32 -25 34 -29 34 -29 5 0 -19 18
-52 40 -74 22 -22 40 -44 40 -50 0 -5 19 -39 42 -75 32 -50 38 -54 27 -17 -9
34 -7 43 11 32 13 -8 9 13 -10 50 -18 35 -28 68 -23 74 21 21 95 -157 83 -200
-9 -32 -7 -36 7 -16 15 22 21 19 32 -15 22 -69 90 -55 105 21 l13 65 26 -70
27 -69 -12 70 c-11 64 -9 67 17 32 19 -26 29 -29 29 -10 1 42 46 198 57 198 5
0 5 -25 -1 -55 -6 -30 -5 -44 2 -30 6 14 20 20 29 14 10 -6 13 4 5 23 -8 22
-5 30 9 21 23 -14 20 199 -3 222 -7 6 -12 0 -12 -14 0 -20 -7 -20 -27 -3 -23
18 -27 11 -21 -43 6 -63 5 -62 -43 29 -26 51 -58 99 -69 106 -25 15 -26 50 -2
50 9 0 22 -18 28 -40 7 -26 21 -36 41 -29 30 12 -21 130 -69 160 -10 6 -18 22
-18 35 0 13 20 1 45 -26 25 -28 38 -42 30 -31 -40 52 -7 53 39 1 37 -43 43
-46 19 -10 -62 95 -78 133 -33 80 24 -27 60 -70 81 -95 35 -41 34 -53 -5 -48
-8 2 -9 -12 -2 -31 9 -22 5 -28 -10 -18 -16 9 -19 3 -11 -19 10 -25 16 -26 28
-7 10 16 21 -1 30 -48 7 -41 21 -69 31 -63 10 6 12 -2 6 -19 -6 -16 -1 -46 11
-66 20 -32 22 -31 11 9 -10 34 -6 42 16 34 24 -9 29 9 28 90 -1 61 -8 91 -18
76 -10 -15 -12 0 -5 35 10 48 8 54 -11 30 -18 -24 -20 -21 -9 18 8 30 6 42 -7
34 -12 -7 -40 14 -62 46 -51 71 -54 96 -7 59 32 -25 32 -24 7 8 -15 20 -23 41
-16 47 18 18 108 -132 155 -258 41 -110 41 -194 1 -92 -11 28 -20 35 -21 17 0
-17 12 -49 28 -70 23 -30 30 -32 31 -9 1 17 19 -1 40 -40 43 -78 50 -108 20
-90 -11 7 -14 -2 -7 -21 10 -25 16 -26 28 -7 11 18 21 7 31 -33 13 -54 68
-155 68 -125 0 7 -18 55 -40 106 -22 52 -34 103 -27 115 7 12 4 15 -8 8 -11
-7 -26 1 -33 19 -19 49 -15 51 38 16 28 -18 50 -25 49 -15 -1 24 -51 88 -62
78 -8 -8 -8 45 0 139 3 33 7 35 23 10 29 -45 24 -14 -11 70 -23 54 -26 80 -10
90 16 9 14 21 -6 38 -24 19 -34 17 -51 -12 -11 -20 -21 -27 -22 -16 0 11 -19
43 -41 70 -33 41 -37 43 -27 10 10 -34 5 -33 -33 10 l-44 50 31 -52 c57 -96 6
-100 -72 -4 -82 101 -90 126 -42 126 19 0 28 -11 22 -27 -6 -14 1 -26 16 -26
30 0 16 48 -56 197 -65 135 -117 104 -56 -35 23 -52 39 -98 35 -102 -4 -4 -39
65 -79 153 -40 88 -77 160 -82 160 -13 0 37 -119 110 -264 65 -128 69 -145 33
-124 -14 8 -9 -3 10 -25 43 -49 44 -60 6 -60 -16 0 -27 8 -25 18 2 10 -18 27
-46 38 -40 15 -45 14 -25 -6 14 -14 25 -33 25 -43 0 -33 -61 31 -92 95 -20 40
-21 50 -4 29 52 -63 95 -40 64 34 -15 36 -22 80 -15 98 6 17 4 29 -6 26 -9 -3
-42 19 -73 48 -159 149 -109 -106 59 -302 81 -94 88 -127 13 -60 -30 26 -43
32 -28 13 33 -43 -3 -47 -38 -5 -14 16 -33 30 -43 30 -21 0 17 -71 71 -135 22
-25 35 -49 29 -54 -5 -6 -52 41 -104 103 -82 98 -101 178 -31 135 31 -19 2
147 -39 226 -24 47 -48 85 -54 85 -5 0 4 -28 22 -62 18 -34 27 -67 20 -73 -6
-7 -11 -6 -11 1 0 7 -22 5 -48 -5 -42 -16 -51 -11 -72 40 -27 64 -13 130 22
108 15 -10 18 1 9 33 -12 45 -11 46 16 12 27 -34 29 -29 22 50 -6 74 -5 78 9
26 l17 -60 4 70 c3 68 4 69 24 20 l21 -50 24 66 c13 38 31 59 42 50 10 -9 7 0
-8 19 -19 25 -21 49 -6 91 13 38 13 69 -1 93 -14 26 -14 33 2 23 29 -18 29 -1
1 51 -27 52 13 107 41 57 27 -47 101 -128 101 -110 0 9 20 -1 44 -22 l44 -38
-43 62 c-24 34 -57 73 -74 87 -26 22 -91 132 -91 155 0 5 10 2 23 -6 15 -9 18
-5 9 9 -8 13 -22 19 -31 13 -21 -12 -38 31 -26 66 7 21 15 21 42 0 36 -28 15
5 -55 90 -17 20 -32 60 -33 89 -3 53 -88 143 -140 148 -64 5 -71 8 -87 34 -11
18 -18 1 -18 -50z m246 -367 c-27 -228 -54 -413 -65 -440 -6 -16 -12 -36 -13
-44 -1 -8 -15 -26 -30 -40 -23 -22 -25 -21 -11 3 17 30 16 105 -3 288 -9 87
-7 95 27 85 29 -10 37 -2 37 37 0 26 -7 44 -16 39 -9 -6 -16 0 -16 12 0 12 -7
18 -15 13 -8 -5 -16 17 -17 49 l-2 59 31 -45 31 -45 13 50 c7 29 -1 69 -20 99
l-31 49 55 -39 c50 -36 54 -49 45 -130z m-147 -307 c15 -27 15 -34 -1 -24 -12
7 -22 3 -22 -9 0 -12 -8 -17 -18 -11 -22 13 -47 -45 -31 -71 7 -10 20 -14 30
-7 10 6 13 -3 7 -20 -7 -17 -4 -31 6 -31 10 0 18 -36 17 -80 -1 -70 -4 -76
-26 -46 -31 42 -33 73 -2 54 24 -15 24 -13 -33 99 -39 77 -39 77 2 110 39 32
7 150 -40 144 -6 0 -12 4 -12 9 0 6 0 21 0 34 0 24 84 -79 123 -151z m756
-841 c20 32 22 32 13 3 -6 -20 -2 -58 9 -87 12 -33 12 -63 0 -85 -13 -21 -20
-24 -20 -7 -1 15 -10 21 -21 14 -11 -7 -15 1 -8 17 6 16 -8 68 -32 116 -38 78
-38 82 -4 39 37 -46 40 -47 63 -10z m-401 -242 c34 -55 66 -132 72 -170 l12
-70 -28 73 c-39 102 -103 207 -126 207 -10 0 -45 20 -76 45 -32 25 -50 45 -42
45 9 0 1 17 -17 37 -20 22 -29 51 -21 72 16 42 124 -73 226 -239z m359 38 c8
5 15 -6 17 -24 1 -19 8 -56 14 -84 7 -27 -5 -14 -26 30 -22 44 -39 94 -38 110
0 20 4 18 10 -5 5 -20 15 -32 23 -27z"/>
<path d="M4713 2240 c7 -38 24 -105 39 -150 25 -76 26 -77 15 -10 -7 38 -24
105 -39 150 -25 76 -26 77 -15 10z"/>
<path d="M809 2261 c7 -10 -4 -28 -24 -39 -33 -19 -33 -21 5 -50 39 -29 39
-30 -5 -19 -33 9 -45 3 -45 -21 0 -17 11 -32 24 -32 13 0 6 -13 -15 -29 -22
-15 -42 -20 -46 -10 -3 11 -20 19 -36 19 -17 0 -23 -10 -15 -23 10 -16 1 -20
-29 -12 -25 7 -38 3 -31 -8 7 -11 0 -18 -15 -15 -15 2 -40 -1 -57 -8 -16 -6
-47 -14 -68 -18 -21 -3 -42 -17 -47 -30 -6 -18 9 -19 59 -5 36 10 68 19 70 19
2 0 1 -124 -3 -275 -6 -260 -6 -264 9 -75 8 110 16 237 18 283 2 90 122 150
165 83 9 -14 17 -18 17 -8 1 74 100 -87 103 -166 l3 -92 12 78 12 77 69 -122
c66 -119 117 -165 91 -83 -18 58 9 174 32 138 13 -22 18 -19 19 12 2 29 5 32
13 10 6 -16 24 -45 40 -63 17 -20 21 -38 9 -45 -11 -7 -14 -32 -8 -57 6 -25 4
-39 -4 -31 -9 8 -23 44 -33 80 -15 56 -16 51 -9 -34 5 -57 2 -84 -7 -61 -15
37 -15 37 -30 0 -8 -22 -5 -41 7 -45 11 -4 21 -19 21 -32 0 -14 22 -46 50 -72
l49 -46 6 -452 6 -452 4 483 c5 483 -1 558 -40 534 -14 -9 -17 9 -8 52 7 36
13 81 13 98 1 29 3 29 21 3 24 -34 14 99 -10 138 -7 12 -8 41 0 65 10 33 17
36 31 15 14 -22 17 -21 18 7 0 20 21 45 46 57 59 27 112 103 59 84 -19 -7 -49
-24 -65 -38 -19 -16 -42 -19 -58 -9 -22 13 -19 21 13 38 22 12 44 17 50 12 5
-6 22 6 37 26 25 32 25 33 -7 8 -31 -24 -35 -23 -36 10 0 28 -15 20 -62 -38
-33 -41 -73 -75 -88 -75 -14 0 -25 -17 -24 -39 2 -21 10 -34 19 -28 9 5 16 0
16 -11 0 -34 -80 -66 -132 -53 -28 7 -48 26 -48 47 0 20 -11 48 -25 63 -20 22
-17 24 20 16 25 -6 45 -3 45 7 0 10 -10 18 -21 18 -12 0 -16 9 -9 20 7 11 1
20 -13 20 -19 0 -19 6 -2 23 18 18 14 32 -16 58 -39 34 -39 34 6 47 l45 13
-47 39 c-48 40 -135 56 -114 21z"/>
<path d="M4457 2235 c-7 -31 -4 -61 6 -67 10 -6 13 -19 7 -28 -6 -9 -1 -23 10
-30 11 -7 15 -21 9 -31 -6 -11 1 -37 17 -59 26 -38 28 -32 27 69 -1 65 -8 100
-19 85 -9 -14 -12 5 -5 46 8 49 6 58 -6 30 -18 -40 -18 -40 -26 0 -7 33 -11
30 -20 -15z"/>
<path d="M5895 2245 c-5 -8 -9 -51 -10 -95 -1 -44 3 -64 8 -45 6 20 18 31 27
25 10 -6 13 9 7 34 -5 26 -11 57 -12 71 -2 28 -9 32 -20 10z"/>
<path d="M5363 2110 c0 -62 4 -71 17 -40 9 22 18 28 19 13 0 -15 19 -50 41
-78 l40 -50 -3 57 c-4 96 -17 125 -53 119 -19 -3 -40 9 -48 27 -7 18 -13 -2
-13 -48z"/>
<path d="M5800 2079 c0 -12 -10 -15 -23 -7 -13 8 -18 3 -12 -14 5 -15 20 -26
32 -23 12 2 17 -7 12 -21 -6 -14 15 -48 45 -75 l56 -49 -50 56 c-40 46 -42 54
-12 42 28 -11 34 -7 25 14 -7 15 -19 44 -25 63 -14 38 -48 48 -48 14z"/>
<path d="M5886 2025 c18 -18 53 -34 78 -36 l45 -3 -47 31 c-69 46 -118 51 -76
8z"/>
<path d="M5377 1874 c4 -79 18 -151 30 -159 17 -10 16 -14 -2 -15 -14 0 -24
-24 -24 -55 2 -49 4 -50 19 -15 16 38 21 36 28 -8 1 -10 10 -26 20 -35 11 -10
12 -7 4 8 -9 15 -2 25 17 25 45 0 38 35 -19 88 -41 39 -49 64 -47 144 2 59 6
76 11 43 8 -53 86 -121 86 -75 0 24 -54 113 -100 164 -28 31 -30 21 -23 -110z"/>
<path d="M611 1894 c-9 -42 -11 -81 -5 -87 6 -6 3 -33 -7 -59 -13 -34 -11 -48
6 -48 16 -1 14 -8 -5 -20 -18 -12 -20 -20 -6 -20 13 0 27 -29 32 -65 7 -63 8
-63 15 15 4 44 12 -19 19 -140 12 -219 12 -219 16 105 2 189 -4 325 -15 325
-10 0 -22 16 -26 35 -5 21 -15 4 -24 -41z"/>
<path d="M306 1800 c0 -71 4 -101 8 -65 5 36 5 94 0 130 -4 36 -8 7 -8 -65z"/>
<path d="M692 1234 c-9 -361 -12 -661 -6 -666 12 -13 42 1229 30 1282 -5 22
-16 -255 -24 -616z"/>
<path d="M106 1710 c0 -66 4 -91 8 -55 5 36 5 90 0 120 -4 30 -8 1 -8 -65z"/>
<path d="M742 1496 c-3 -212 4 -350 18 -376 12 -22 15 -51 7 -64 -9 -16 -19
-11 -28 15 -8 22 -14 -78 -14 -221 0 -143 4 -244 9 -225 5 19 18 35 30 35 11
0 16 -18 10 -40 -6 -22 -2 -40 9 -40 17 0 12 881 -6 1060 -5 48 1 68 18 65 16
-3 25 18 25 57 0 52 -5 59 -28 40 -22 -18 -30 -18 -37 2 -5 14 -11 -125 -13
-308z"/>
<path d="M887 1650 c0 -99 3 -142 8 -96 4 47 4 128 0 180 -4 53 -8 15 -8 -84z"/>
<path d="M5347 1660 c0 -82 3 -116 8 -75 4 41 4 109 0 150 -5 41 -8 8 -8 -75z"/>
<path d="M4758 1755 c15 -19 22 -35 16 -35 -9 0 95 -168 181 -293 23 -33 24
-32 5 7 -26 56 -25 72 2 55 15 -10 15 -1 -1 29 -27 51 -44 55 -29 7 10 -30 7
-29 -20 4 -36 43 -43 80 -12 61 12 -7 14 2 6 22 -8 22 -5 30 9 21 12 -7 20 -1
17 15 -5 38 -52 92 -78 92 -14 0 -14 -8 2 -24 61 -61 16 -56 -50 5 -41 38 -62
53 -48 34z"/>
<path d="M4241 1709 c-1 -12 26 -57 58 -100 73 -96 79 -142 9 -59 -59 69 -30
6 32 -70 34 -42 38 -43 28 -10 -10 34 -5 32 31 -10 l43 -50 -30 63 c-17 34
-52 88 -78 120 -26 31 -58 75 -70 97 -13 22 -23 30 -23 19z"/>
<path d="M4680 1645 c53 -72 71 -83 51 -31 -18 49 7 19 59 -67 54 -88 82 -61
34 35 -22 45 -48 68 -77 69 -23 0 -59 14 -79 30 -24 19 -20 8 12 -36z"/>
<path d="M921 1579 c0 -64 12 -125 30 -148 27 -35 29 -30 28 70 0 64 -12 125
-30 148 -27 35 -29 30 -28 -70z"/>
<path d="M4459 1615 c42 -71 41 -115 -1 -115 -11 0 -14 10 -6 23 9 14 5 18 -8
9 -16 -10 -17 -26 -1 -62 25 -53 69 -78 88 -49 6 11 21 14 32 7 11 -7 1 24
-22 69 -48 94 -53 130 -10 74 16 -21 29 -29 29 -17 0 12 -18 43 -40 69 -35 41
-39 42 -28 7 10 -34 5 -33 -32 10 l-44 50 43 -75z"/>
<path d="M5634 1640 c6 -22 17 -40 24 -40 7 0 29 -27 49 -60 19 -33 46 -60 59
-60 15 0 17 6 4 15 -11 8 -32 37 -48 64 l-27 49 52 -34 c88 -58 83 -38 -9 36
-102 80 -118 85 -104 30z"/>
<path d="M286 1520 c0 -71 4 -101 8 -65 5 36 5 94 0 130 -4 36 -8 7 -8 -65z"/>
<path d="M4570 1620 c-6 -10 -2 -38 11 -62 16 -30 16 -39 1 -29 -30 18 -27 -8
8 -69 35 -61 38 -87 8 -69 -16 10 -16 3 0 -27 12 -23 31 -66 43 -95 11 -30 25
-50 31 -44 6 6 -4 40 -22 75 -18 35 -29 68 -24 73 5 5 52 -77 104 -183 52
-105 99 -188 104 -183 5 5 -10 45 -32 90 -23 44 -36 97 -30 117 8 24 6 28 -6
11 -12 -17 -38 16 -82 105 -71 144 -72 175 -1 50 24 -44 66 -94 92 -112 37
-24 43 -37 25 -58 -17 -20 -7 -56 40 -150 34 -68 53 -118 41 -111 -11 7 -21 7
-21 -1 0 -32 281 -593 292 -582 7 6 56 -76 110 -182 53 -107 97 -182 98 -168
0 14 -18 60 -39 103 l-40 77 49 -5 c59 -6 22 113 -54 171 -26 20 -33 37 -20
46 14 8 1 58 -40 143 -33 72 -57 135 -52 140 5 5 35 -45 66 -111 32 -66 67
-120 80 -120 35 0 68 42 56 72 -13 34 -60 37 -71 4 -4 -13 -56 76 -115 199
-60 123 -111 220 -115 216 -4 -4 15 -53 44 -108 53 -107 65 -154 31 -133 -32
20 -24 -2 53 -155 39 -79 58 -133 42 -119 -17 14 -37 48 -43 75 -8 28 -27 49
-47 49 -27 1 -29 5 -9 17 22 14 22 22 -2 47 -16 16 -33 46 -38 67 -5 22 -19
37 -32 34 -13 -3 -29 17 -35 44 -7 26 -26 53 -43 60 -21 8 -26 27 -18 60 16
63 -47 194 -86 180 -20 -7 -22 -3 -8 16 13 16 11 41 -5 72 -23 43 -26 44 -35
10 -6 -22 -10 -12 -9 23 0 33 -6 78 -14 100 -8 22 13 -5 47 -60 34 -55 61 -93
62 -84 0 36 -123 255 -138 245 -10 -6 -47 39 -84 99 -37 61 -79 110 -93 110
-15 0 -22 9 -15 20 7 11 8 20 2 20 -5 0 -15 -9 -22 -20z m541 -1102 c28 -56
48 -105 44 -109 -4 -5 -31 41 -61 102 -29 60 -49 109 -44 109 5 0 33 -46 61
-102z"/>
<path d="M0 1613 c0 -4 22 -50 50 -105 l50 -98 0 70 c-1 39 -7 80 -15 91 -14
20 -85 55 -85 42z"/>
<path d="M1007 1450 c0 -88 3 -122 8 -74 4 47 4 119 0 160 -5 40 -8 2 -8 -86z"/>
<path d="M3770 1547 c18 -18 43 -57 54 -85 12 -30 25 -41 30 -27 5 14 19 20
30 13 11 -8 10 5 -3 30 -13 24 -33 37 -45 29 -15 -9 -18 -2 -10 21 8 19 5 29
-5 23 -10 -7 -24 -3 -31 9 -7 11 -21 20 -33 20 -11 0 -5 -15 13 -33z"/>
<path d="M4723 1505 c24 -47 50 -76 57 -66 6 11 58 -75 116 -190 109 -219 117
-239 84 -219 -11 7 -14 -2 -7 -21 9 -23 17 -25 27 -9 10 16 19 13 28 -11 7
-19 18 -30 24 -24 6 6 -27 85 -72 175 -45 90 -78 168 -73 174 5 5 34 -45 64
-112 30 -68 63 -116 75 -109 11 7 14 4 7 -8 -7 -12 46 -137 118 -278 71 -141
128 -239 125 -217 -9 59 49 50 89 -16 20 -31 44 -51 54 -44 11 6 28 -7 40 -28
26 -49 27 -68 1 -52 -11 7 -14 -2 -7 -21 9 -23 17 -25 27 -9 10 16 18 13 27
-10 18 -47 16 -54 -9 -39 -15 10 -15 1 1 -29 13 -24 33 -37 45 -29 14 8 19 2
11 -16 -6 -18 0 -30 16 -30 19 0 13 26 -22 96 -55 107 -59 126 -26 105 15 -9
18 -5 9 9 -8 13 -23 18 -33 12 -11 -6 -19 -3 -19 8 0 11 7 23 15 28 8 5 4 6
-10 2 -13 -3 -53 53 -88 125 -34 72 -69 122 -76 110 -7 -12 -53 60 -102 160
-49 100 -96 186 -105 191 -8 6 32 -85 90 -201 57 -116 110 -202 116 -191 7 10
32 -23 57 -74 25 -50 40 -96 35 -102 -6 -5 -26 23 -45 63 -21 44 -40 63 -49
49 -8 -14 -19 -7 -27 21 -8 23 -22 38 -31 32 -10 -6 -23 -2 -30 10 -7 11 -3
20 8 20 36 0 -20 98 -64 112 -29 9 -32 17 -14 28 26 16 -12 140 -43 140 -7 0
-18 21 -24 47 -7 26 -35 70 -63 97 -48 48 -53 132 -6 103 12 -7 11 5 -2 29
-35 66 -25 78 20 24 l40 -50 -29 60 c-17 33 -45 78 -63 100 -32 39 -32 39 -11
-4 27 -56 27 -72 -1 -55 -16 10 -16 3 0 -27 28 -53 28 -57 -9 -72 -17 -6 -26
-4 -20 6 11 18 -45 51 -74 45 -19 -4 -20 26 -1 44 28 28 22 70 -8 59 -21 -9
-23 -16 -6 -26 17 -10 18 -19 3 -28 -13 -8 -47 35 -83 102 -34 64 -57 100 -51
81 6 -19 16 -51 23 -70 12 -38 -7 -19 -68 68 -14 20 -5 -1 19 -48z"/>
<path d="M1053 1410 c5 -77 11 -261 15 -410 l6 -270 -14 220 c-9 138 -11 63
-5 -200 5 -231 16 -496 25 -590 13 -137 15 -110 9 140 -4 171 -1 284 7 252 13
-54 64 -99 64 -58 0 10 -11 30 -25 45 -20 21 -20 24 0 13 19 -11 24 22 22 142
-3 138 -5 145 -17 66 l-14 -90 -5 90 c-3 50 -9 142 -13 206 -5 75 -1 112 12
104 12 -7 17 -19 13 -26 -4 -8 -1 -32 8 -54 10 -25 17 25 18 134 1 120 -7 181
-26 200 -15 15 -32 40 -38 56 -8 20 -14 13 -17 -20 -3 -27 -11 4 -19 70 -13
117 -13 117 -6 -20z"/>
<path d="M5380 1431 c0 -105 31 -151 82 -120 34 21 18 54 -22 43 -34 -9 -40 0
-40 55 0 59 5 65 50 56 70 -14 62 27 -10 52 l-60 21 0 -107z"/>
<path d="M3688 1445 c-8 -30 -23 -67 -35 -83 -12 -15 -20 -55 -18 -90 4 -52 1
-55 -14 -22 -18 40 -15 -28 12 -247 l10 -88 29 56 c16 31 24 70 17 88 -30 75
-31 274 -1 274 21 0 27 -20 23 -75 -6 -86 16 -140 36 -88 7 19 9 41 4 49 -6 8
-2 43 8 78 13 45 11 61 -6 57 -12 -2 -22 16 -21 41 0 25 -6 45 -15 45 -9 0
-11 14 -4 30 6 17 6 30 0 30 -7 0 -18 -25 -25 -55z"/>
<path d="M863 779 c2 -379 9 -710 16 -736 7 -27 11 184 8 466 -2 283 -1 511 4
507 4 -4 9 -73 11 -152 2 -79 12 -144 22 -144 10 0 12 -10 5 -22 -8 -12 -2
-43 12 -70 21 -39 21 -57 0 -96 -22 -41 -19 -67 16 -175 l43 -127 -12 260 c-7
144 -23 273 -35 289 -18 22 -17 25 2 14 19 -12 25 34 25 206 0 134 -8 221 -20
221 -11 0 -20 17 -20 39 0 62 -36 67 -46 6 -5 -30 -8 -3 -8 60 0 64 -6 121
-13 129 -7 7 -12 -297 -10 -675z"/>
<path d="M367 1410 c-15 -40 8 -96 33 -80 11 7 15 -1 8 -17 -6 -16 -1 -35 11
-42 13 -9 21 15 21 66 0 82 -50 132 -73 73z"/>
<path d="M2067 1411 c-23 -16 -47 -25 -54 -20 -7 5 -9 3 -4 -3 5 -7 -13 -45
-40 -85 -27 -40 -49 -84 -49 -99 0 -16 -10 -20 -25 -11 -17 10 -16 4 2 -19 16
-19 20 -34 10 -34 -19 0 -24 -304 -5 -320 6 -5 27 -77 46 -160 53 -231 180
-660 195 -660 12 0 -59 254 -105 375 -34 89 -23 131 30 120 39 -7 45 -3 32 23
-8 18 -27 82 -40 142 -14 61 -32 119 -41 130 -19 25 -15 130 6 130 8 0 16 -20
16 -45 1 -25 19 -94 40 -155 40 -114 38 -100 -13 120 -16 72 -34 166 -39 210
-15 121 23 23 52 -134 22 -127 62 -272 179 -658 83 -276 80 -265 90 -255 5 5
-10 67 -32 138 -49 154 -67 386 -25 328 14 -19 20 -44 13 -55 -7 -11 -2 -14
11 -6 15 9 17 26 5 48 -19 37 -22 47 -22 95 0 19 -9 26 -23 17 -14 -8 -18 -5
-10 8 9 13 -2 20 -25 19 -28 -2 -35 -12 -23 -34 9 -17 21 -67 28 -111 12 -78
11 -77 -25 22 -66 180 -71 229 -26 241 28 8 37 23 30 54 -23 107 37 -30 95
-214 34 -109 66 -193 71 -188 13 13 -115 398 -178 535 -27 61 -55 137 -61 170
-6 33 -6 48 0 33 10 -23 15 -23 31 0 13 19 16 10 7 -28 -6 -30 1 -86 18 -125
33 -80 60 -97 31 -19 -26 68 -25 82 4 53 13 -13 32 -24 41 -24 10 0 4 14 -14
31 -17 18 -32 45 -33 60 -12 134 -77 182 -113 85 -24 -61 -48 -64 -57 -7 -2
16 9 33 24 39 15 6 28 20 28 31 0 11 -15 14 -32 7 -28 -10 -29 -6 -10 30 36
67 65 73 105 22 24 -30 33 -35 25 -13 -23 65 11 36 52 -44 46 -90 49 -109 18
-90 -15 10 -15 1 1 -29 27 -51 44 -55 29 -7 -18 53 62 -50 120 -156 56 -101
299 -749 323 -859 8 -38 19 -59 23 -46 11 31 -30 164 -142 464 -51 136 -89
252 -84 256 4 5 14 -10 22 -33 7 -23 21 -37 31 -31 9 6 35 -23 57 -64 22 -42
41 -62 41 -45 1 17 -7 40 -17 50 -10 10 -33 73 -52 139 -32 113 -86 125 -91
21 -1 -18 -99 164 -99 183 0 4 23 -8 51 -26 27 -18 55 -28 62 -22 16 16 -13
57 -32 45 -9 -6 -29 5 -44 24 -24 32 -24 32 8 8 42 -34 44 -24 6 48 l-28 55
-18 -68 -18 -68 -54 92 c-54 93 -55 165 -1 145 57 -23 25 24 -97 136 -137 126
-147 131 -208 88z"/>
<path d="M3495 1369 c-120 -62 -255 -194 -255 -249 0 -28 90 -10 104 20 14 32
27 -175 22 -360 -2 -81 2 -97 14 -60 9 28 18 39 21 25 2 -14 6 -34 9 -45 3
-11 6 -36 8 -55 2 -30 5 -31 24 -5 17 23 19 19 10 -21 -9 -42 -3 -51 33 -54
25 -2 35 3 23 11 -12 8 -23 28 -23 44 -2 30 -12 79 -47 238 -11 48 -13 129 -6
178 8 55 6 85 -6 78 -11 -7 -15 14 -9 52 10 62 11 61 35 -36 l25 -100 -11 105
c-9 88 -6 105 21 105 18 0 32 7 31 15 -9 56 4 93 22 65 16 -25 19 -23 20 10 1
33 4 35 20 10 16 -25 19 -25 20 -2 0 16 15 45 33 65 47 53 16 45 -138 -34z"/>
<path d="M4502 1165 c66 -140 130 -264 142 -275 13 -13 13 -4 -2 24 -27 54
-28 72 -2 56 30 -18 27 -11 -62 179 -45 96 -78 178 -73 183 4 4 34 -45 66
-111 32 -65 65 -114 73 -108 9 5 11 -4 4 -20 -12 -33 58 -182 97 -206 31 -19
75 -27 75 -13 0 17 -145 275 -160 286 -8 6 -21 39 -29 75 -13 58 -131 158
-131 112 0 -8 -14 3 -31 24 -26 33 -25 27 2 -41 56 -138 53 -144 -10 -25 -105
197 -85 127 41 -140z m106 -145 c7 -27 -9 -9 -36 40 -28 50 -50 104 -50 120 0
36 68 -89 86 -160z"/>
<path d="M5787 1326 c35 -42 35 -44 -5 -84 -40 -40 -40 -42 -3 -61 27 -15 40
-14 46 4 6 17 25 9 59 -24 l51 -49 -62 -33 c-47 -26 -61 -46 -56 -79 5 -36 -1
-43 -28 -32 -28 10 -30 7 -12 -14 12 -15 19 -32 14 -37 -5 -4 8 -8 28 -8 25 0
35 11 30 36 -4 20 2 31 13 24 11 -7 38 3 59 22 22 19 40 27 40 17 1 -10 10 2
20 27 15 39 5 57 -72 128 -81 75 -122 140 -66 105 13 -8 19 -3 13 13 -4 14
-30 40 -57 57 -49 31 -49 31 -12 -12z"/>
<path d="M4283 1220 c35 -66 67 -116 72 -111 10 9 -112 231 -126 231 -5 0 20
-54 54 -120z"/>
<path d="M1 1290 c-1 -11 89 -291 199 -623 110 -331 200 -617 200 -635 0 -18
14 -32 32 -32 22 0 28 11 20 35 -12 33 -11 33 15 0 15 -19 33 -35 39 -35 17 0
5 167 -15 199 -10 15 -25 55 -34 89 l-16 62 7 -60 c3 -33 13 -78 21 -100 9
-26 3 -22 -17 10 -16 28 -36 88 -43 135 -8 47 -20 85 -28 85 -17 0 -90 144
-84 167 3 10 -8 13 -24 7 -18 -7 -33 5 -41 32 -17 65 -14 88 7 55 10 -17 26
-23 34 -14 16 16 -32 56 -53 43 -6 -4 -46 103 -89 237 -80 250 -129 378 -130
343z"/>
<path d="M1008 950 c0 -176 3 -245 7 -154 4 91 4 235 0 320 -4 85 -7 10 -7
-166z"/>
<path d="M3769 1190 c5 -67 31 -126 31 -72 0 13 9 19 19 12 12 -7 11 13 -2 49
-30 88 -55 93 -48 11z"/>
<path d="M4421 1244 c-1 -15 -10 -21 -21 -14 -24 15 -26 -10 -4 -44 27 -42 72
3 47 47 -13 21 -22 26 -22 11z"/>
<path d="M637 1085 c-1 -85 -5 -189 -7 -231 -2 -41 1 -79 8 -83 7 -4 15 100
18 231 4 131 1 238 -5 238 -6 0 -12 -70 -14 -155z"/>
<path d="M446 1060 c0 -71 4 -101 8 -65 5 36 5 94 0 130 -4 36 -8 7 -8 -65z"/>
<path d="M6 1077 c2 -51 12 -88 21 -83 10 6 11 -10 4 -36 -8 -30 -7 -38 4 -23
11 16 47 -66 103 -240 48 -146 104 -313 124 -371 43 -119 44 -125 23 -121 -8
2 -41 -7 -73 -20 -71 -30 -56 -53 -141 217 -81 257 -80 189 2 -90 73 -250 130
-381 112 -253 -8 51 -2 59 54 70 36 7 58 21 51 33 -7 11 -4 20 7 20 11 0 24
-11 30 -25 5 -14 11 -15 11 -4 1 12 -74 246 -167 520 -132 393 -168 479 -165
406z"/>
<path d="M2520 1119 c13 -23 28 -38 34 -32 6 6 40 -11 76 -39 36 -27 76 -47
90 -44 13 3 67 -87 121 -204 54 -116 98 -199 99 -185 0 37 -215 485 -234 486
-55 5 -116 22 -125 35 -31 40 -83 26 -61 -17z"/>
<path d="M3080 1141 c0 -19 -78 -52 -105 -45 -22 6 -19 -11 16 -79 18 -33 37
-56 42 -51 6 6 0 30 -13 54 -13 24 -18 49 -12 55 7 6 12 1 12 -12 0 -38 36
-26 50 17 7 22 21 35 31 29 10 -6 13 3 7 20 -14 35 -28 41 -28 12z"/>
<path d="M4771 1018 c39 -78 67 -155 61 -171 -7 -16 -3 -24 7 -17 11 6 37 -23
59 -64 22 -42 41 -69 41 -61 1 22 -217 455 -229 455 -6 0 22 -64 61 -142z"/>
<path d="M1310 1074 c-33 -39 -35 -150 -4 -195 33 -47 61 -23 41 34 -9 27 -7
31 9 17 14 -12 25 -118 29 -260 l6 -240 5 248 c3 211 -1 251 -29 272 -20 14
-33 50 -31 87 2 71 2 71 -26 37z"/>
<path d="M2551 990 c66 -120 79 -136 59 -72 -26 86 23 26 59 -72 20 -53 67
-166 105 -252 38 -87 95 -258 127 -380 31 -123 58 -207 58 -187 1 20 -17 108
-40 196 -22 87 -34 169 -27 181 8 13 5 17 -7 9 -12 -7 -27 11 -34 42 -8 30
-58 156 -113 281 -110 254 -110 253 -65 236 28 -11 29 -8 6 20 -19 23 -30 25
-36 8 -4 -14 -25 0 -47 33 -22 31 -35 41 -28 22 35 -101 35 -107 8 -68 -66 94
-75 95 -25 3z"/>
<path d="M2781 1054 c-1 -8 23 -62 52 -120 29 -57 75 -153 101 -214 27 -60 42
-87 34 -60 -7 28 -13 76 -13 107 -1 31 -7 46 -14 34 -9 -14 -23 -2 -38 29 -31
70 -29 86 6 39 28 -37 30 -36 43 29 13 63 16 65 41 31 36 -49 34 -21 -4 52
-33 65 -54 79 -37 24 10 -30 7 -30 -20 4 -37 45 -57 32 -57 -38 0 -68 -7 -65
-54 24 -21 41 -40 68 -40 59z"/>
<path d="M3247 1015 c-25 -39 -33 -398 -11 -475 16 -56 18 -42 9 75 -7 88 -2
154 10 170 12 14 26 77 31 140 8 110 -6 143 -39 90z"/>
<path d="M2395 880 c42 -82 87 -177 100 -210 18 -46 21 -48 13 -10 -14 63
-116 277 -157 330 -18 22 2 -27 44 -110z"/>
<path d="M3563 947 c-11 -20 -11 -58 -1 -95 32 -109 21 -201 -11 -102 -15 44
-28 70 -29 57 -3 -36 76 -272 109 -327 36 -58 33 -45 -18 84 -35 88 -36 96 -4
128 25 25 29 48 18 95 -9 35 -16 92 -15 128 1 71 -19 84 -49 32z"/>
<path d="M2700 889 c0 -51 104 -249 124 -236 11 7 29 0 40 -15 26 -39 1 49
-48 165 -38 89 -116 147 -116 86z"/>
<path d="M3462 880 c-3 -50 49 -247 76 -290 25 -40 25 -40 11 0 -8 22 -30 103
-50 180 -19 77 -36 127 -37 110z"/>
<path d="M1567 690 c0 -110 4 -152 8 -94 4 58 4 148 0 200 -4 52 -8 4 -8 -106z"/>
<path d="M2345 634 c43 -123 111 -317 150 -432 54 -154 76 -198 87 -170 23 57
20 82 -4 48 -16 -23 -19 -16 -10 30 6 33 5 47 -2 31 -7 -17 -34 31 -68 120
-58 155 -76 237 -38 179 13 -20 19 -22 20 -5 0 14 10 25 21 25 12 0 16 -8 10
-18 -6 -10 0 -23 14 -29 14 -6 9 -11 -12 -11 -26 -1 -33 -12 -25 -34 7 -17 12
-39 12 -49 0 -10 17 -4 38 14 36 31 36 37 6 119 -29 79 -54 98 -54 43 0 -12
-15 -23 -34 -26 -26 -4 -48 37 -97 183 -34 103 -69 192 -77 197 -8 5 20 -92
63 -215z"/>
<path d="M2620 857 c0 -6 21 -63 47 -129 26 -65 53 -135 60 -156 8 -21 18 -33
24 -28 5 5 -18 76 -51 157 -56 134 -80 182 -80 156z"/>
<path d="M3998 767 c69 -93 80 -125 27 -85 -30 22 -31 22 -10 -2 13 -15 38
-30 55 -32 38 -6 16 37 -70 132 l-64 70 62 -83z"/>
<path d="M1463 685 c-2 -117 3 -145 27 -145 17 0 30 -13 30 -30 0 -16 -9 -30
-20 -30 -11 0 -20 10 -20 23 0 13 -5 19 -10 13 -24 -23 73 -447 111 -485 21
-21 43 -34 50 -27 16 16 -75 363 -101 381 -11 8 -12 15 -3 15 10 0 6 15 -10
34 -18 23 -19 29 -2 19 19 -12 25 13 25 102 0 66 -11 129 -25 144 -20 21 -20
24 0 13 14 -8 25 -5 25 7 0 11 -13 21 -29 21 -15 0 -32 20 -37 45 -5 25 -10
-20 -11 -100z"/>
<path d="M2371 746 c-22 -58 31 -165 70 -141 28 17 30 32 13 87 -23 74 -65
102 -83 54z"/>
<path d="M1269 698 c0 -22 10 -35 24 -30 13 6 28 -1 33 -14 4 -13 8 -1 9 27 0
33 -11 52 -33 53 -21 2 -33 -12 -33 -36z"/>
<path d="M361 708 c2 -47 75 -354 77 -324 2 40 -55 320 -69 333 -5 5 -9 1 -8
-9z"/>
<path d="M1902 657 c-2 -77 -54 -121 -85 -73 -35 56 -15 -142 34 -324 64 -243
71 -265 80 -256 4 4 -15 88 -42 187 -58 211 -57 200 -19 169 16 -14 47 -20 69
-15 30 8 42 -2 52 -49 7 -32 16 -55 21 -51 4 5 -9 79 -31 167 -21 87 -47 194
-57 238 l-20 80 -2 -73z m23 -133 c6 -24 -3 -37 -28 -39 -41 -3 -65 25 -47 55
20 32 65 23 75 -16z"/>
<path d="M3693 675 c10 -48 6 -53 -25 -41 -33 12 -33 10 -7 -18 21 -22 33 -25
44 -9 10 16 14 14 15 -5 0 -16 5 -24 11 -18 6 6 -3 42 -19 79 -27 59 -29 60
-19 12z"/>
<path d="M3260 630 c0 -38 8 -70 18 -70 10 0 14 -18 8 -40 -6 -23 -1 -40 12
-40 37 0 46 48 20 112 -14 32 -23 69 -20 83 2 14 -6 25 -17 25 -12 0 -21 -31
-21 -70z"/>
<path d="M4897 655 c15 -19 34 -30 42 -25 8 5 25 -14 38 -42 31 -68 29 -78
-10 -45 -31 25 -31 23 -6 -17 15 -25 33 -35 40 -24 7 10 29 -17 49 -62 20 -45
45 -87 54 -93 10 -5 -21 67 -68 162 -47 95 -89 163 -93 151 -5 -15 -18 -13
-40 4 -29 23 -30 22 -6 -9z"/>
<path d="M3343 640 c0 -56 34 -119 37 -70 2 30 8 25 24 -20 84 -245 296 -615
296 -518 0 6 -7 6 -16 0 -28 -17 -127 207 -113 255 8 28 6 34 -6 17 -15 -20
-65 43 -65 83 0 3 32 1 72 -3 90 -11 110 -57 46 -108 -26 -22 -37 -34 -23 -27
17 9 20 2 12 -21 -9 -23 -5 -31 15 -24 16 5 43 -15 63 -48 20 -32 44 -53 54
-46 11 6 33 -16 51 -49 17 -34 35 -61 41 -61 5 0 -13 45 -41 101 -28 55 -60
95 -70 89 -11 -7 -15 0 -9 15 6 15 -4 60 -20 100 -39 92 -39 117 0 66 16 -21
29 -28 29 -14 0 19 10 19 45 1 l45 -23 -43 41 c-23 23 -59 38 -80 35 -20 -3
-46 -1 -57 6 -11 6 -51 12 -90 12 -67 1 -72 6 -114 121 -24 66 -45 102 -46 80
-3 -40 -3 -40 -20 0 -11 25 -17 29 -17 10z"/>
<path d="M1304 561 c-24 -53 9 -381 42 -413 44 -45 74 6 34 58 -32 40 -38 62
-23 81 22 26 8 307 -16 322 -7 5 -24 -17 -37 -48z"/>
<path d="M1629 450 c6 -148 89 -487 106 -434 4 12 -12 83 -36 158 -25 75 -51
204 -60 286 l-16 150 6 -160z"/>
<path d="M2521 598 c0 -7 35 -109 79 -228 44 -118 90 -251 101 -295 12 -43 26
-74 32 -69 6 6 -23 108 -64 227 -74 213 -145 389 -148 365z"/>
<path d="M4840 514 c0 -8 19 -53 42 -98 40 -78 40 -85 8 -108 -35 -26 -23 -78
14 -56 13 8 16 -2 7 -27 -25 -80 67 -225 143 -225 36 0 66 9 66 20 0 24 -96
65 -118 51 -25 -15 -80 121 -68 167 6 23 19 36 30 29 11 -6 9 8 -4 32 -13 25
-18 49 -12 56 6 6 17 -4 24 -22 7 -18 22 -27 33 -20 12 8 15 4 7 -10 -8 -13 0
-43 17 -67 17 -25 31 -36 31 -24 0 11 -11 32 -25 47 -20 22 -19 25 8 15 50
-17 60 37 14 78 -32 30 -43 31 -56 9 -13 -20 -31 0 -68 71 -28 54 -52 85 -52
68 -1 -27 -4 -27 -21 0 -11 17 -20 23 -20 14z"/>
<path d="M1204 460 c-1 -27 11 -144 25 -260 15 -117 27 -170 27 -120 1 96 -50
465 -52 380z"/>
<path d="M2894 486 c-6 -10 -4 -30 5 -45 10 -15 13 -39 7 -54 -6 -15 -1 -27
11 -27 12 0 16 -16 9 -35 -7 -19 -5 -28 5 -19 9 8 15 49 12 90 -5 76 -30 121
-49 90z"/>
<path d="M109 438 c-16 -51 12 -84 58 -67 35 14 42 46 18 79 -27 36 -62 30
-76 -12z"/>
<path d="M1105 437 c-2 -35 2 -36 30 -14 18 15 27 18 20 6 -7 -11 -4 -34 6
-50 14 -23 18 -19 19 15 0 60 -70 100 -75 43z"/>
<path d="M3783 470 c14 -34 150 -296 199 -385 27 -46 56 -85 65 -85 9 0 -3 34
-28 75 -25 41 -85 146 -132 233 -76 140 -128 220 -104 162z"/>
<path d="M1028 230 c0 -132 3 -183 7 -114 4 69 4 177 0 240 -4 63 -7 6 -7
-126z"/>
<path d="M2171 410 c6 -33 37 -141 70 -240 32 -99 54 -153 48 -120 -5 33 -37
141 -69 240 -32 99 -54 153 -49 120z"/>
<path d="M3260 450 c-2 -33 169 -450 184 -450 8 0 -3 42 -25 93 -22 51 -37 96
-32 100 4 5 27 -37 51 -92 40 -93 122 -147 122 -80 0 12 -10 15 -23 7 -15 -9
-18 -5 -9 10 21 33 -101 288 -133 277 -14 -5 -23 -30 -20 -56 8 -66 -8 -43
-64 93 -27 65 -50 109 -51 98z"/>
<path d="M3314 435 c-18 -51 24 -97 69 -74 49 27 39 37 107 -116 31 -69 59
-122 63 -118 4 4 -28 83 -71 175 -43 92 -80 150 -81 128 -2 -38 -4 -38 -29 -5
-31 41 -45 44 -58 10z"/>
<path d="M5380 426 c-1 -31 -4 -32 -20 -6 -11 17 -19 21 -19 10 2 -33 217
-442 218 -414 1 15 9 21 19 15 15 -9 42 30 42 61 0 21 -60 5 -61 -17 0 -14 -9
-9 -21 10 -11 19 -14 46 -6 60 8 14 7 18 -2 10 -9 -8 -34 13 -55 48 -36 60
-18 114 29 85 8 -6 11 3 4 19 -19 51 -92 57 -78 6 8 -30 2 -26 -21 15 -32 56
-10 107 35 80 9 -6 16 -6 16 0 0 6 -18 20 -40 32 -33 18 -40 15 -40 -14z"/>
<path d="M2069 413 c-17 -42 27 -137 56 -121 18 10 19 8 3 -10 -16 -17 -16
-46 -1 -103 20 -74 53 -109 53 -56 0 13 5 18 12 12 6 -6 1 -30 -11 -53 -16
-30 -16 -42 -1 -42 13 0 18 -7 13 -16 -6 -9 8 -17 29 -19 29 -2 37 7 30 31
-83 287 -100 330 -135 339 -30 8 -33 16 -15 37 17 21 17 28 0 28 -13 0 -28
-12 -33 -27z"/>
<path d="M3 367 c-2 -34 11 -97 29 -139 29 -70 29 -80 -2 -133 -19 -32 -28
-64 -21 -71 13 -12 131 -25 131 -15 0 3 -26 78 -58 167 -33 89 -63 182 -68
208 -7 36 -9 33 -11 -17z"/>
<path d="M1272 260 c14 -167 27 -246 41 -259 18 -17 -15 301 -35 348 -12 27
-14 -4 -6 -89z"/>
<path d="M2305 363 c-20 -12 -17 -41 13 -134 38 -117 39 -118 28 -29 -6 50
-21 104 -33 120 -17 25 -16 26 7 5 41 -36 58 -31 46 15 -12 44 -23 48 -61 23z"/>
<path d="M3221 342 c-15 -21 -38 -34 -52 -29 -53 20 -52 -42 3 -177 31 -78 59
-132 63 -122 3 10 -17 70 -45 133 -27 63 -49 125 -49 139 1 13 19 -14 39 -61
28 -63 46 -81 71 -72 31 12 31 34 -2 140 -7 22 1 17 20 -13 l33 -50 -14 50
c-24 91 -37 103 -67 62z"/>
<path d="M2404 320 c6 -16 32 -95 58 -175 27 -79 55 -144 63 -145 16 0 -95
318 -118 338 -7 7 -9 -1 -3 -18z"/>
<path d="M4680 309 c0 -16 9 -29 19 -29 11 0 14 -14 8 -31 -10 -26 -16 -25
-40 5 -16 20 -10 -2 13 -49 37 -76 46 -83 82 -64 22 12 37 28 33 35 -5 8 -21
43 -36 78 -29 69 -79 104 -79 55z"/>
<path d="M504 280 c-1 -27 12 -81 28 -120 30 -75 26 -29 -9 100 -15 56 -19 60
-19 20z"/>
<path d="M1160 305 c0 -14 -14 -19 -35 -11 -31 11 -31 8 3 -31 34 -38 35 -50
12 -93 -15 -28 -21 -56 -13 -63 7 -8 13 -3 13 11 0 13 9 19 20 12 33 -20 24
-76 -10 -63 -20 8 -30 -1 -30 -28 0 -28 14 -39 50 -39 49 0 49 1 38 145 -10
119 -48 246 -48 160z"/>
<path d="M2565 295 c3 -14 -7 -22 -22 -19 -18 4 -24 -6 -15 -27 6 -18 12 -36
12 -41 0 -4 10 -8 21 -8 12 0 16 9 9 20 -7 12 2 14 22 6 27 -10 32 -5 21 22
-7 19 -13 44 -13 54 0 10 -9 18 -20 18 -11 0 -18 -11 -15 -25z"/>
<path d="M3732 280 c14 -54 147 -301 148 -274 0 8 -18 53 -41 100 -36 75 -18
67 37 -16 22 -33 124 -93 124 -73 0 31 -130 209 -151 208 -10 -1 -30 8 -44 19
-14 12 -25 13 -26 3 0 -9 -14 6 -31 33 l-30 50 14 -50z"/>
<path d="M5093 270 c-14 -37 46 -173 70 -158 9 5 11 -5 3 -24 -8 -22 -5 -30 9
-21 13 8 17 -2 11 -27 -9 -32 -1 -40 39 -40 l50 0 -72 150 c-75 155 -90 172
-110 120z"/>
<path d="M5361 288 c0 -10 13 -40 29 -68 37 -65 37 -76 -3 -73 -18 2 -37 -10
-42 -25 -7 -18 -2 -22 15 -12 17 10 22 6 15 -12 -15 -44 21 -98 57 -84 29 11
29 14 2 29 -17 9 -27 33 -24 52 4 19 8 39 8 44 1 5 16 -9 33 -30 17 -22 7 11
-23 71 -57 118 -68 137 -67 108z"/>
<path d="M1700 248 c0 -13 18 -28 40 -34 29 -7 40 0 40 27 0 24 -13 36 -40 34
-22 -2 -40 -14 -40 -27z"/>
<path d="M1633 160 c17 -99 45 -167 44 -110 0 22 -13 72 -28 110 l-29 70 13
-70z"/>
<path d="M2021 209 c-2 -31 62 -213 71 -203 4 4 -9 56 -31 116 -21 59 -39 98
-40 87z"/>
<path d="M3312 190 c33 -104 34 -116 11 -102 -13 8 -23 4 -23 -9 0 -13 13 -18
29 -12 18 7 34 -5 42 -30 7 -22 17 -36 22 -31 4 5 -14 57 -43 116 -28 60 -45
90 -38 68z"/>
<path d="M2611 181 c-6 -10 -2 -24 9 -31 11 -7 16 -20 10 -30 -13 -21 30 -120
52 -120 19 0 -13 115 -41 149 -11 13 -15 31 -7 38 7 7 7 13 1 13 -7 0 -18 -8
-24 -19z"/>
<path d="M5585 169 c-13 -15 -16 -32 -7 -38 10 -6 23 0 29 14 6 15 10 12 11
-9 1 -18 12 -40 24 -47 15 -10 18 1 9 33 -11 43 -9 42 19 -7 43 -75 59 -70 20
6 -18 33 -40 55 -49 50 -10 -6 -21 -3 -24 7 -4 10 -18 6 -32 -9z"/>
<path d="M1731 141 c6 -17 17 -56 23 -86 10 -48 86 -85 86 -42 0 66 -50 164
-83 161 -26 -2 -34 -13 -26 -33z"/>
<path d="M1930 144 c5 -15 10 -41 10 -57 0 -17 10 -23 23 -15 15 9 18 5 8 -11
-10 -15 -5 -33 11 -43 43 -27 58 -21 58 22 0 22 -10 40 -21 40 -12 0 -16 8
-10 18 20 33 -11 79 -51 76 -24 -1 -35 -13 -28 -30z"/>
<path d="M4668 136 c36 -62 41 -84 14 -67 -11 6 -33 -2 -50 -19 -27 -28 -34
-24 -70 44 -22 42 -41 69 -41 60 -1 -15 55 -134 71 -152 4 -4 21 4 39 19 21
17 37 19 46 6 7 -12 28 -21 47 -21 37 1 14 62 -55 144 -31 38 -31 37 -1 -14z"/>
<path d="M280 59 l-70 -58 55 0 c34 -1 55 10 55 27 0 16 10 32 23 36 13 5 19
18 15 31 -5 13 -36 -1 -78 -36z"/>
<path d="M1340 55 c1 -45 6 -57 18 -37 10 15 31 23 47 17 21 -9 26 1 20 37
-15 78 -85 64 -85 -17z"/>
<path d="M4740 111 c0 -38 53 -111 81 -111 50 0 62 51 21 88 -32 29 -102 45
-102 23z"/>
<path d="M925 50 c0 -36 11 -50 38 -50 46 0 51 70 5 88 -44 17 -43 18 -43 -38z"/>
</g>
</svg>
