<?xml version="1.0" encoding="UTF-8"?>
<svg width="102px" height="103px" viewBox="0 0 102 103" version="1.1" xmlns="http://www.w3.org/2000/svg" xmlns:xlink="http://www.w3.org/1999/xlink">
    <!-- Generator: Sketch 56.2 (81672) - https://sketch.com -->
    <title>NikoLogo</title>
    <desc>Created with Sketch.</desc>
    <g id="Web-View" stroke="none" stroke-width="1" fill="none" fill-rule="evenodd">
        <g id="Desktop-HD-Welc.Page" transform="translate(-38.000000, -39.000000)">
            <g id="NikoLogo" transform="translate(38.000000, 44.000000)">
                <g transform="translate(0.000000, -4.429224)">
                    <rect id="Rectangle-Copy" stroke="#E0F5F9" stroke-width="2" fill-opacity="0.1" fill="#000000" x="14.2589286" y="1" width="86.3928571" height="86.5844749"></rect>
                    <rect id="Rectangle" stroke="#8A8BD1" stroke-width="2" fill-opacity="0.1" fill="#000000" x="1" y="14.2876712" width="86.3928571" height="86.5844749"></rect>
                    <g id="WebSymbol" transform="translate(32.263393, 30.118721)" stroke="#FFFFFF">
                        <path d="M6.09230769,17.2982456 L10.6615385,19.8421053" id="Line-3" stroke-width="2" stroke-linecap="square"></path>
                        <path d="M6.09230769,17.2982456 L11.1692308,14.245614" id="Line-3-Copy" stroke-width="2" stroke-linecap="square"></path>
                        <path d="M13.6734607,23.1361172 C14.9804734,19.9346683 15.9156857,17.6466358 16.4790976,16.2720196 C17.0425096,14.8974034 17.6537649,13.4123541 18.3128636,11.8168717" id="Line-2" stroke-width="3" stroke-linecap="square"></path>
                        <path d="M1,28 L32,28 L32,5 C32,2.790861 30.209139,1 28,1 L5,1 C2.790861,1 1,2.790861 1,5 L1,28 Z" id="Rectangle" stroke-width="2" fill-opacity="0.1" fill="#000000" fill-rule="evenodd"></path>
                        <path d="M22.3384615,14.245614 L26.9076923,16.7894737 L22.3384615,14.245614 Z M21.8307692,19.8421053 L26.9076923,16.7894737 L21.8307692,19.8421053 Z" id="Line-3-Copy-4" stroke-width="2" stroke-linecap="square"></path>
                        <path d="M1.01538462,6.29605263 L31.9846154,6.29605263" id="Line" stroke-width="2" fill="#FFFFFF" fill-rule="evenodd" stroke-linecap="square"></path>
                    </g>
                    <text id="NIKO" font-family="Montserrat-Medium, Montserrat" font-size="12" font-weight="400" letter-spacing="1.24" fill="#FFFFFF">
                        <tspan x="31.3049821" y="73.7534247">NIKO</tspan>
                    </text>
                </g>
            </g>
        </g>
    </g>
</svg>